<svg width="27" height="27" viewBox="0 0 189 189" fill="none" xmlns="http://www.w3.org/2000/svg">
    <g clip-path="url(#clip0_121_59962)">
        <path fill-rule="evenodd" clip-rule="evenodd"
            d="M97.0428 76.6982V86.8267C97.0428 92.3595 92.5555 96.8287 87.0287 96.8287H76.8878C71.361 96.8287 66.8736 92.3468 66.8736 86.8267C66.8736 83.2311 66.8736 79.6481 66.975 76.0525C66.9843 75.7146 67.0062 75.3753 67.0281 75.0357C67.0965 73.9755 67.1651 72.9132 66.8483 71.8871C66.43 70.5324 65.7455 69.3929 65.0356 68.2535C63.8314 66.3037 61.9553 64.7844 59.775 64.0754C57.6767 63.4002 55.3777 63.5753 53.1265 63.7467C52.1274 63.8228 51.1377 63.8982 50.1792 63.8982H43.9172C41.7495 63.8982 39.734 63.2145 38.0988 62.037C35.5636 60.2266 33.903 57.2513 33.903 53.8962C33.903 51.6965 33.9603 49.4968 34.0175 47.2989V47.2988L34.0175 47.2986C34.0713 45.2333 34.125 43.1696 34.1312 41.1089C34.1312 37.6778 32.8129 34.4873 29.9354 32.4363C27.1762 30.4707 24.1005 30.6294 20.9744 30.7907H20.9744C20.1941 30.831 19.4107 30.8714 18.6283 30.879C17.1444 30.8935 15.6563 30.8749 14.1665 30.8563C13.0473 30.8423 11.9272 30.8284 10.8071 30.8284C5.28032 30.8284 0.792969 26.3465 0.792969 20.8264V10.7105C0.805645 5.19039 5.29299 0.708496 10.8198 0.708496H20.9607C26.4875 0.708496 30.9748 5.19039 30.9748 10.7105C30.9748 11.4946 30.9777 12.2778 30.9805 13.0606V13.0609V13.0611C30.988 15.1471 30.9956 17.2301 30.9495 19.3198C30.9362 19.9909 30.8902 20.6689 30.8439 21.3487V21.3487V21.3488C30.7132 23.2722 30.5815 25.2093 31.1903 27.0428C32.3312 30.5372 35.272 32.7908 38.8087 33.5631C40.5335 33.9353 42.2315 33.8787 43.9628 33.8211C44.2927 33.8101 44.6238 33.7991 44.9566 33.791C46.9852 33.7319 49.0082 33.7516 51.0293 33.7713H51.0294H51.0296C52.0394 33.7811 53.0487 33.791 54.0581 33.791C57.4172 33.791 60.4088 35.4495 62.2088 37.9943C63.3877 39.6402 64.0722 41.628 64.0722 43.7929C64.0722 46.6669 64.0468 49.5409 63.9961 52.4276C63.9874 53.0197 63.9581 53.6211 63.9285 54.2263C63.8291 56.2612 63.7276 58.3393 64.4018 60.2519C65.5426 63.493 68.4835 66.1265 71.8934 66.7848C73.3701 67.0691 75.0154 66.9544 76.6102 66.8432L76.6104 66.8431C77.288 66.7959 77.9565 66.7493 78.599 66.7342C80.6995 66.6962 82.7999 66.7009 84.9057 66.7057C85.6085 66.7073 86.3118 66.7089 87.016 66.7089C92.5428 66.7089 97.0301 71.1908 97.0301 76.7108L97.0428 76.6982ZM91.8853 13.5588C91.2515 13.5969 90.6431 13.6349 90.0093 13.6983C90.6177 13.6095 91.2515 13.5588 91.8853 13.5588ZM160.17 183.315C166.584 189.721 176.991 189.721 183.405 183.315H183.431C186.105 180.643 187.791 177.086 188.159 173.325C188.552 169.299 187.436 165.197 185.015 161.943C183.938 160.5 182.6 159.236 181.273 157.984C180.773 157.511 180.275 157.041 179.793 156.562C178.599 155.378 177.41 154.184 176.22 152.99C175.426 152.192 174.631 151.395 173.835 150.599L165 141.775C172.098 131.266 176.725 119.188 178.398 106.464C180.769 88.5111 177.131 70.267 168.067 54.5803C158.991 38.8937 144.997 26.6255 128.239 19.7001C116.691 14.927 104.281 12.8633 91.9471 13.5723H91.8964C91.2626 13.6103 90.6541 13.6482 90.0203 13.7115C90.0013 13.7115 89.9791 13.7147 89.9569 13.7179C89.9347 13.721 89.9126 13.7242 89.8935 13.7242C83.5174 14.6991 78.6118 20.1179 78.4597 26.7141V27.0306C78.4597 27.727 78.5104 28.4233 78.6245 29.107C79.6385 35.7032 85.3935 40.3877 91.9851 40.4763C92.231 40.4798 92.4769 40.4832 92.7228 40.4867C96.8894 40.5444 101.064 40.6023 105.194 41.2359C109.529 41.9196 113.775 43.1097 117.832 44.781C129.063 49.4274 138.443 57.6442 144.515 68.1526C150.6 78.6737 153.033 90.8913 151.436 102.919C149.852 114.959 144.338 126.126 135.743 134.71C127.149 143.294 115.968 148.801 103.913 150.397C91.871 151.979 79.6385 149.548 69.1047 143.471C58.5835 137.407 50.3567 128.038 45.7045 116.82C43.9679 112.63 42.751 108.224 42.0918 103.742C41.6812 100.964 41.5831 98.1668 41.485 95.3682C41.4225 93.5881 41.3601 91.8073 41.2172 90.0304C40.6975 83.143 34.8918 77.5216 27.8819 77.5216H27.7932C27.1847 77.5216 26.5763 77.5722 25.9678 77.6482C20.8973 78.3319 16.5494 81.9655 14.9649 86.8272C14.5104 88.224 14.4309 89.7064 14.3521 91.176C14.3452 91.3049 14.3383 91.4337 14.3311 91.5623C14.2297 93.3222 14.2043 95.0947 14.2424 96.8545C14.3184 100.387 14.648 103.894 15.1424 107.388C16.1184 114.187 17.9438 120.859 20.5804 127.202C27.5143 143.94 39.7975 157.93 55.5032 166.982C71.2089 176.035 89.4752 179.668 107.45 177.301C119.682 175.693 131.332 171.376 141.561 164.741L159.688 182.846C159.853 182.998 160.018 183.15 160.17 183.315Z"
            fill="url(#paint0_linear_121_59962)" />
    </g>
    <defs>
        <linearGradient id="paint0_linear_121_59962" x1="-6.26163" y1="-7.23845" x2="92.2454" y2="255.055"
            gradientUnits="userSpaceOnUse">
            <stop stop-color="#5434E4" />
            <stop offset="0.333333" stop-color="#8954F6" />
            <stop offset="0.666667" stop-color="#E27AF8" />
            <stop offset="1" stop-color="#F5C6FF" />
        </linearGradient>
        <clipPath id="clip0_121_59962">
            <rect width="187.404" height="187.404" fill="white" transform="translate(0.804688 0.708496)" />
        </clipPath>
    </defs>
</svg>