<svg width="32" height="31" viewBox="0 0 32 31" fill="none" xmlns="http://www.w3.org/2000/svg">
    <path
        d="M24.99 5.05688H7.01001C5.34763 5.05688 4 6.36239 4 7.97282V17.4084C4 19.0189 5.34763 20.3244 7.01001 20.3244H24.99C26.6524 20.3244 28 19.0189 28 17.4084V7.97282C28 6.36239 26.6524 5.05688 24.99 5.05688Z"
        fill="url(#paint0_linear_200_66395)" stroke="url(#paint1_linear_200_66395)" stroke-linejoin="round" />
    <path d="M16 8.18604V14.2892" stroke="url(#paint2_linear_200_66395)" stroke-width="2" stroke-miterlimit="10"
        stroke-linecap="round" />
    <ellipse cx="16" cy="17.1953" rx="1" ry="0.96875" fill="url(#paint3_linear_200_66395)" />
    <path
        d="M16.0001 22.7754C13.8001 22.7754 11.9101 24.0832 11.1201 25.9432H11.8901C12.6201 24.461 14.1901 23.4438 16.0001 23.4438C17.8101 23.4438 19.3701 24.461 20.1101 25.9432H20.8701C20.0801 24.0832 18.2001 22.7754 16.0001 22.7754Z"
        fill="url(#paint4_linear_200_66395)" stroke="url(#paint5_linear_200_66395)" stroke-linecap="round"
        stroke-linejoin="round" />
    <defs>
        <linearGradient id="paint0_linear_200_66395" x1="4" y1="12.6906" x2="28" y2="12.6906"
            gradientUnits="userSpaceOnUse">
            <stop stop-color="#FDF3FE" />
            <stop offset="1" stop-color="#EDEBFC" />
        </linearGradient>
        <linearGradient id="paint1_linear_200_66395" x1="3.5" y1="12.6906" x2="28.5" y2="12.6906"
            gradientUnits="userSpaceOnUse">
            <stop stop-color="#FDF3FE" />
            <stop offset="1" stop-color="#EDEBFC" />
        </linearGradient>
        <linearGradient id="paint2_linear_200_66395" x1="16" y1="8.18604" x2="16" y2="14.2892"
            gradientUnits="userSpaceOnUse">
            <stop stop-color="#A999F1" />
            <stop offset="1" stop-color="#A67EF8" />
        </linearGradient>

        <linearGradient id="paint3_linear_200_66395" x1="16" y1="16.2266" x2="16" y2="18.1641"
            gradientUnits="userSpaceOnUse">
            <stop stop-color="#A999F1" />
            <stop offset="1" stop-color="#A67EF8" />
        </linearGradient>
        <linearGradient id="paint4_linear_200_66395" x1="11.1201" y1="24.3641" x2="20.8701" y2="24.3641"
            gradientUnits="userSpaceOnUse">
            <stop stop-color="#A999F1" />
            <stop offset="1" stop-color="#A67EF8" />
        </linearGradient>
        <linearGradient id="paint5_linear_200_66395" x1="10.6201" y1="24.3641" x2="21.3701" y2="24.3641"
            gradientUnits="userSpaceOnUse">
            <stop stop-color="#A999F1" />
            <stop offset="1" stop-color="#A67EF8" />
        </linearGradient>
    </defs>
</svg>