<svg width="25" height="25" viewBox="0 0 32 32" fill="none" xmlns="http://www.w3.org/2000/svg">
    <path
        d="M16 4C9.37258 4 4 9 4 14C4 17.5 6 20.5 9 22.5L7 27L12 24.5C13.5 25 15 25.5 16.5 25.5C23.1274 25.5 28 20.6274 28 14C28 9 22.6274 4 16 4Z"
        fill="url(#paint0_linear)" stroke="url(#paint1_linear)" stroke-width="1.5" stroke-linejoin="round" />
    <path d="M10 14H22" stroke="url(#paint2_linear)" stroke-width="1.5" stroke-linecap="round"
        stroke-linejoin="round" />
    <path d="M10 10H22" stroke="url(#paint3_linear)" stroke-width="1.5" stroke-linecap="round"
        stroke-linejoin="round" />
    <path d="M10 18H16" stroke="url(#paint3_linear)" stroke-width="1.5" stroke-linecap="round"
        stroke-linejoin="round" />
    <defs>
        <linearGradient id="paint0_linear" x1="16" y1="4" x2="16" y2="25.5" gradientUnits="userSpaceOnUse">
            <stop stop-color="#FDF3FE" />
            <stop offset="1" stop-color="#EDEBFC" />
        </linearGradient>
        <linearGradient id="paint1_linear" x1="4" y1="3.5" x2="5" y2="24.5" gradientUnits="userSpaceOnUse">
            <stop stop-color="#FDF3FE" />
            <stop offset="1" stop-color="#EDEBFC" />
        </linearGradient>
        <linearGradient id="paint2_linear" x1="10" y1="14" x2="22" y2="14" gradientUnits="userSpaceOnUse">
            <stop stop-color="#A999F1" />
            <stop offset="1" stop-color="#A67EF8" />
        </linearGradient>
        <linearGradient id="paint3_linear" x1="10" y1="10" x2="22" y2="10" gradientUnits="userSpaceOnUse">
            <stop stop-color="#A999F1" />
            <stop offset="1" stop-color="#A67EF8" />
        </linearGradient>
    </defs>
</svg>