<svg width="25" height="25" viewBox="0 0 32 32" fill="none" xmlns="http://www.w3.org/2000/svg">
 
    <rect x="2" y="12" width="4" height="18" fill="url(#paint0_linear)" />
    <rect x="8" y="8" width="4" height="22" fill="url(#paint1_linear)" />
    <rect x="14" y="6" width="4" height="24" fill="url(#paint2_linear)" />
    <rect x="20" y="10" width="4" height="20" fill="url(#paint3_linear)" />
    <rect x="26" y="4" width="4" height="26" fill="url(#paint4_linear)" />


    <circle cx="4" cy="16" r="0.5" fill="#FDF3FE" />
    <circle cx="10" cy="14" r="0.5" fill="#FDF3FE" />
    <circle cx="16" cy="12" r="0.5" fill="#FDF3FE" />
    <circle cx="22" cy="16" r="0.5" fill="#FDF3FE" />
    <circle cx="28" cy="10" r="0.5" fill="#FDF3FE" />


    <rect x="0" y="30" width="32" height="2" fill="#9FA8DA" />

    <defs>
        <linearGradient id="paint0_linear" x1="2" y1="12" x2="6" y2="30" gradientUnits="userSpaceOnUse">
            <stop stop-color="#A999F1" />
            <stop offset="1" stop-color="#A67EF8" />
        </linearGradient>
        <linearGradient id="paint1_linear" x1="8" y1="8" x2="12" y2="30" gradientUnits="userSpaceOnUse">
            <stop stop-color="#A999F1" />
            <stop offset="1" stop-color="#A67EF8" />
        </linearGradient>
        <linearGradient id="paint2_linear" x1="14" y1="6" x2="18" y2="30" gradientUnits="userSpaceOnUse">
            <stop stop-color="#A999F1" />
            <stop offset="1" stop-color="#A67EF8" />
        </linearGradient>
        <linearGradient id="paint3_linear" x1="20" y1="10" x2="24" y2="30" gradientUnits="userSpaceOnUse">
            <stop stop-color="#A999F1" />
            <stop offset="1" stop-color="#A67EF8" />
        </linearGradient>
        <linearGradient id="paint4_linear" x1="26" y1="4" x2="30" y2="30" gradientUnits="userSpaceOnUse">
            <stop stop-color="#A999F1" />
            <stop offset="1" stop-color="#A67EF8" />
        </linearGradient>
    </defs>
</svg>