<svg width="28" height="28" viewBox="0 0 32 32" fill="none" xmlns="http://www.w3.org/2000/svg">
    <path fill-rule="evenodd" clip-rule="evenodd"
        d="M20.9144 9.28267C21.4137 8.78338 22.2184 8.78338 22.7177 9.28267C23.217 9.78197 23.217 10.5867 22.7177 11.086L18.1571 15.6466C17.9618 15.8419 17.9618 16.1585 18.1571 16.3537L22.7177 20.9144C23.217 21.4137 23.217 22.2184 22.7177 22.7177C22.2184 23.217 21.4137 23.217 20.9144 22.7177L16.3537 18.1571C16.1585 17.9618 15.8419 17.9618 15.6466 18.1571L11.086 22.7177C10.5867 23.217 9.78197 23.217 9.28267 22.7177C8.78338 22.2184 8.78338 21.4137 9.28267 20.9144L13.8433 16.3537C14.0386 16.1585 14.0386 15.8419 13.8433 15.6466L9.28267 11.086C8.78338 10.5867 8.78338 9.78197 9.28267 9.28267C9.78197 8.78338 10.5867 8.78338 11.086 9.28267L15.6466 13.8433C15.8419 14.0386 16.1585 14.0386 16.3537 13.8433L20.9144 9.28267Z"
        fill="url(#paint0_linear_200_66882)" />
    <defs>
        <linearGradient id="paint0_linear_200_66882" x1="23.0713" y1="8.92898" x2="8.93755" y2="23.0628"
            gradientUnits="userSpaceOnUse">
            <stop stop-color="#A999F1" />
            <stop offset="1" stop-color="#A67EF8" />
        </linearGradient>
    </defs>
</svg>