<svg width="32" height="32" viewBox="0 0 32 32" fill="none" xmlns="http://www.w3.org/2000/svg">
<path d="M5.26527 12.1826H9.79277V26.7501H5.26527V12.1826ZM7.53027 4.93262C8.04956 4.93262 8.55717 5.08663 8.98891 5.37518C9.42064 5.66373 9.75709 6.07385 9.9557 6.55365C10.1543 7.03345 10.2061 7.56138 10.1047 8.07065C10.0032 8.57992 9.75291 9.04764 9.38554 9.41466C9.01818 9.78167 8.55022 10.0315 8.04085 10.1325C7.53149 10.2335 7.00361 10.1811 6.524 9.98208C6.04438 9.78302 5.63459 9.44618 5.34645 9.01417C5.05831 8.58216 4.90478 8.0744 4.90527 7.55512C4.90594 6.85936 5.18279 6.19232 5.675 5.70058C6.16721 5.20884 6.83451 4.93262 7.53027 4.93262ZM12.6328 12.1826H16.9728V14.1826H17.0328C17.6378 13.0376 19.1128 11.8301 21.3153 11.8301C25.9003 11.8201 26.7503 14.8376 26.7503 18.7501V26.7501H22.2228V19.6626C22.2228 17.9751 22.1928 15.8026 19.8703 15.8026C17.5478 15.8026 17.1528 17.6426 17.1528 19.5526V26.7501H12.6328V12.1826Z" fill="white"/>
<path d="M5.26527 12.1826H9.79277V26.7501H5.26527V12.1826ZM7.53027 4.93262C8.04956 4.93262 8.55717 5.08663 8.98891 5.37518C9.42064 5.66373 9.75709 6.07385 9.9557 6.55365C10.1543 7.03345 10.2061 7.56138 10.1047 8.07065C10.0032 8.57992 9.75291 9.04764 9.38554 9.41466C9.01818 9.78167 8.55022 10.0315 8.04085 10.1325C7.53149 10.2335 7.00361 10.1811 6.524 9.98208C6.04438 9.78302 5.63459 9.44618 5.34645 9.01417C5.05831 8.58216 4.90478 8.0744 4.90527 7.55512C4.90594 6.85936 5.18279 6.19232 5.675 5.70058C6.16721 5.20884 6.83451 4.93262 7.53027 4.93262ZM12.6328 12.1826H16.9728V14.1826H17.0328C17.6378 13.0376 19.1128 11.8301 21.3153 11.8301C25.9003 11.8201 26.7503 14.8376 26.7503 18.7501V26.7501H22.2228V19.6626C22.2228 17.9751 22.1928 15.8026 19.8703 15.8026C17.5478 15.8026 17.1528 17.6426 17.1528 19.5526V26.7501H12.6328V12.1826Z" fill="url(#paint0_linear_200_66900)"/>
<defs>
<linearGradient id="paint0_linear_200_66900" x1="4.91821" y1="15.8852" x2="26.7503" y2="15.8852" gradientUnits="userSpaceOnUse">
<stop stop-color="#A999F1"/>
<stop offset="1" stop-color="#A67EF8"/>
</linearGradient>
</defs>
</svg>
