<svg width="32" height="32" viewBox="0 0 32 32" fill="none" xmlns="http://www.w3.org/2000/svg">
    <path
        d="M27.6305 10.6761C27.2205 10.3261 26.6005 10.3861 26.2605 10.7961C23.7005 13.8461 19.9605 15.5961 16.0005 15.5961C12.0405 15.5961 8.30047 13.8461 5.74047 10.7961C5.40047 10.3761 4.78047 10.3261 4.37047 10.6761C3.96047 11.0161 3.90047 11.6361 4.25047 12.0461C5.33047 13.3361 6.60047 14.4161 8.00047 15.2761L6.07047 18.0561C5.76047 18.4961 5.87047 19.1061 6.31047 19.4161C6.48047 19.5361 6.67047 19.5861 6.87047 19.5861C7.18047 19.5861 7.48047 19.4361 7.67047 19.1661L9.74047 16.1861C10.5705 16.5561 11.4305 16.8461 12.3105 17.0661L11.4105 20.3161C11.2705 20.8361 11.5705 21.3761 12.0905 21.5161C12.1805 21.5361 12.2605 21.5561 12.3505 21.5561C12.7805 21.5561 13.1705 21.2761 13.2905 20.8361L14.2305 17.4261C14.8105 17.4961 15.4005 17.5361 16.0005 17.5361C16.6005 17.5361 17.1805 17.4961 17.7705 17.4261L18.7105 20.8361C18.8305 21.2661 19.2205 21.5561 19.6505 21.5561C19.7405 21.5561 19.8205 21.5461 19.9105 21.5161C20.4305 21.3761 20.7305 20.8361 20.5905 20.3161L19.6905 17.0661C20.5705 16.8461 21.4305 16.5561 22.2605 16.1861L24.3305 19.1661C24.5205 19.4361 24.8205 19.5861 25.1305 19.5861C25.3205 19.5861 25.5205 19.5261 25.6905 19.4161C26.1305 19.1061 26.2405 18.4961 25.9305 18.0561L24.0005 15.2761C25.4005 14.4161 26.6705 13.3361 27.7505 12.0461C28.1005 11.6361 28.0405 11.0161 27.6305 10.6761Z"
        fill="url(#paint0_linear_200_66774)" />
    <defs>
        <linearGradient id="paint0_linear_200_66774" x1="16.0005" y1="10.4461" x2="16.0005" y2="21.5661"
            gradientUnits="userSpaceOnUse">
            <stop stop-color="#FDF3FE" />
            <stop offset="1" stop-color="#EDEBFC" />
        </linearGradient>
    </defs>
</svg>