<svg width="26" height="26" viewBox="0 0 32 32" fill="none" xmlns="http://www.w3.org/2000/svg">
    <path
        d="M28.9869 14.7601C28.9203 14.0801 28.3469 13.5734 27.6669 13.5734H17.6003C16.8669 13.5734 16.2669 14.1734 16.2669 14.9067V17.1868C16.2669 17.9201 16.8669 18.5201 17.6003 18.5201H23.6136C23.4669 19.7468 22.6669 21.6001 20.8936 22.8401C19.7603 23.6268 18.2536 24.1734 16.2669 24.1734C16.1736 24.1734 16.0936 24.1734 16.0003 24.1601C12.6003 24.0534 9.72027 21.7734 8.68027 18.6401C8.40027 17.8001 8.24026 16.9201 8.24026 16.0001C8.24026 15.0801 8.40026 14.1867 8.66693 13.3601C8.74693 13.1201 8.84026 12.8801 8.94693 12.6401C10.1736 9.8801 12.8536 7.93342 16.0003 7.84009C16.0803 7.82675 16.1736 7.82674 16.2669 7.82674C18.1736 7.82674 19.6003 8.45339 20.6003 9.14673C21.1203 9.50673 21.8136 9.42673 22.2669 8.98673L24.1203 7.17342C24.7069 6.60009 24.6536 5.62673 23.9869 5.14673C21.8669 3.58673 19.2803 2.66675 16.2669 2.66675C16.1736 2.66675 16.0936 2.66676 16.0003 2.68009C10.8936 2.77343 6.50693 5.73343 4.36026 10.0134C3.45359 11.8268 2.93359 13.8534 2.93359 16.0001C2.93359 18.1467 3.45359 20.1734 4.36026 21.9867H4.3736C6.52026 26.2667 10.9069 29.2267 16.0003 29.3201C16.0936 29.3334 16.1736 29.3334 16.2669 29.3334C19.8669 29.3334 22.8936 28.1467 25.0936 26.1067C27.6136 23.7734 29.0669 20.3601 29.0669 16.2934C29.0669 15.7201 29.0403 15.2268 28.9869 14.7601Z"
        fill="url(#paint0_linear_200_66895)" />
    <defs>
        <linearGradient id="paint0_linear_200_66895" x1="2.94908" y1="16.0536" x2="29.0669" y2="16.0536"
            gradientUnits="userSpaceOnUse">
            <stop stop-color="#A999F1" />
            <stop offset="1" stop-color="#A67EF8" />
        </linearGradient>
    </defs>
</svg>