<svg width="26" height="26" viewBox="0 0 32 32" fill="none" xmlns="http://www.w3.org/2000/svg">
    <path
        d="M15.9996 26.5412L5.87957 16.4212C3.36957 13.9112 3.36957 9.85124 5.87957 7.34124C8.38957 4.83124 12.4496 4.83124 14.9596 7.34124L15.9996 8.38124L17.0396 7.34124C19.5496 4.83124 23.6096 4.83124 26.1196 7.34124C28.6296 9.85124 28.6296 13.9112 26.1196 16.4212L15.9996 26.5412Z"
        fill="url(#paint0_linear_200_66688)" stroke="url(#paint1_linear_200_66688)" stroke-linejoin="round" />
    <path d="M19.0595 14.3613H19.0195V21.6513H19.0595V14.3613Z" fill="#FDF3FE" />
    <path d="M19.0996 14.3613H19.0596V21.6513H19.0996V14.3613Z" fill="#FCF2FE" />
    <path d="M19.1494 14.3613H19.1094V21.6513H19.1494V14.3613Z" fill="#FBF2FE" />
    <path d="M19.1894 14.3613H19.1494V21.6513H19.1894V14.3613Z" fill="#FAF1FE" />
    <path d="M19.2295 14.3613H19.1895V21.6513H19.2295V14.3613Z" fill="#F9F1FD" />
    <path d="M19.2695 14.3613H19.2295V21.6513H19.2695V14.3613Z" fill="#F8F0FD" />
    <path d="M19.3095 14.3613H19.2695V21.6513H19.3095V14.3613Z" fill="#F7F0FD" />
    <path d="M19.3593 14.3613H19.3193V21.6513H19.3593V14.3613Z" fill="#F6EFFD" />
    <path d="M19.3994 14.3613H19.3594V21.6513H19.3994V14.3613Z" fill="#F4EFFD" />
    <path d="M19.4394 14.3613H19.3994V21.6513H19.4394V14.3613Z" fill="#F3EEFD" />
    <path d="M19.4795 14.3613H19.4395V21.6513H19.4795V14.3613Z" fill="#F2EEFD" />
    <path d="M19.5293 14.3613H19.4893V21.6513H19.5293V14.3613Z" fill="#F1EDFD" />
    <path d="M19.5693 14.3613H19.5293V21.6513H19.5693V14.3613Z" fill="#F0EDFC" />
    <path d="M19.6093 14.3613H19.5693V21.6513H19.6093V14.3613Z" fill="#EFECFC" />
    <path d="M19.6494 14.3613H19.6094V21.6513H19.6494V14.3613Z" fill="#EEECFC" />
    <path d="M19.6894 14.3613H19.6494V21.6513H19.6894V14.3613Z" fill="#EDEBFC" />
    <path
        d="M21.7696 10.7912C21.0096 8.72117 19.6696 8.70117 19.6096 8.70117C19.5496 8.70117 18.2096 8.72117 17.4496 10.7912C17.0796 11.8212 17.2096 12.9412 17.7996 13.7812C18.0696 14.1612 18.3996 14.4412 18.7696 14.6212V20.3212C18.7696 20.7812 19.1496 21.1612 19.6096 21.1612C20.0696 21.1612 20.4496 20.7812 20.4496 20.3212V14.6212C20.8196 14.4412 21.1596 14.1612 21.4196 13.7812C22.0096 12.9412 22.1396 11.8212 21.7696 10.7912Z"
        fill="url(#paint2_linear_200_66688)" />
    <path
        d="M14.4893 11.4014V9.19141C14.4893 8.91141 14.2693 8.69141 13.9893 8.69141C13.7093 8.69141 13.4893 8.91141 13.4893 9.19141V11.9114H12.7593V9.19141C12.7593 8.91141 12.5393 8.69141 12.2593 8.69141C11.9793 8.69141 11.7593 8.91141 11.7593 9.19141V11.9114H11.0293V9.19141C11.0293 8.91141 10.8093 8.69141 10.5293 8.69141C10.2493 8.69141 10.0293 8.91141 10.0293 9.19141V11.3914C10.0293 11.3914 10.0293 11.4014 10.0293 11.4114V12.5914C10.0293 13.5214 10.6093 14.3214 11.4293 14.6514V20.3014C11.4293 20.7614 11.7993 21.1414 12.2693 21.1414C12.7393 21.1414 13.0993 20.7614 13.0993 20.3014V14.6614C13.9193 14.3314 14.4993 13.5314 14.4993 12.5914V11.4114C14.4993 11.4114 14.4993 11.4114 14.4993 11.4014H14.4893Z"
        fill="url(#paint3_linear_200_66688)" />
    <defs>
        <linearGradient id="paint0_linear_200_66688" x1="4.00864" y1="15.9907" x2="28.0078" y2="15.9907"
            gradientUnits="userSpaceOnUse">
            <stop stop-color="#FDF3FE" />
            <stop offset="1" stop-color="#EDEBFC" />
        </linearGradient>
        <linearGradient id="paint1_linear_200_66688" x1="3.49957" y1="16.0012" x2="28.4996" y2="16.0012"
            gradientUnits="userSpaceOnUse">
            <stop stop-color="#FDF3FE" />
            <stop offset="1" stop-color="#EDEBFC" />
        </linearGradient>
        <linearGradient id="paint2_linear_200_66688" x1="19.6096" y1="8.92117" x2="19.6096" y2="20.5712"
            gradientUnits="userSpaceOnUse">
            <stop stop-color="#A999F1" />
            <stop offset="1" stop-color="#A67EF8" />
        </linearGradient>
        <linearGradient id="paint3_linear_200_66688" x1="12.2593" y1="9.48141" x2="12.2593" y2="20.5714"
            gradientUnits="userSpaceOnUse">
            <stop stop-color="#A999F1" />
            <stop offset="1" stop-color="#A67EF8" />
        </linearGradient>
    </defs>
</svg>