<svg width="32" height="31" viewBox="0 0 32 31" fill="none" xmlns="http://www.w3.org/2000/svg">
<path d="M25.5 26.872H6.5C5.12 26.872 4 25.787 4 24.4501V12.7767C4 11.9726 4.41 11.2267 5.1 10.7714L14.6 4.54231C15.45 3.99013 16.56 3.99013 17.4 4.54231L26.9 10.7714C27.59 11.217 28 11.9726 28 12.7767V24.4501C28 25.787 26.88 26.872 25.5 26.872Z" fill="url(#paint0_linear_200_66382)" stroke="url(#paint1_linear_200_66382)" stroke-linejoin="round"/>
<path d="M14.7498 16.1572H17.2698C18.6498 16.1572 19.7698 17.2422 19.7698 18.5791V26.8716H12.2598V18.5791C12.2598 17.2422 13.3798 16.1572 14.7598 16.1572H14.7498Z" fill="url(#paint2_linear_200_66382)" stroke="url(#paint3_linear_200_66382)" stroke-linecap="round" stroke-linejoin="round"/>
<defs>
<linearGradient id="paint0_linear_200_66382" x1="-48.47" y1="4.12575" x2="-47.5314" y2="26.8745" gradientUnits="userSpaceOnUse">
<stop stop-color="#FDF3FE"/>
<stop offset="1" stop-color="#EDEBFC"/>
</linearGradient>
<linearGradient id="paint1_linear_200_66382" x1="-48.47" y1="3.64138" x2="-47.5314" y2="27.3588" gradientUnits="userSpaceOnUse">
<stop stop-color="#FDF3FE"/>
<stop offset="1" stop-color="#EDEBFC"/>
</linearGradient>
<linearGradient id="paint2_linear_200_66382" x1="15.9998" y1="16.1572" x2="15.9998" y2="26.8716" gradientUnits="userSpaceOnUse">
<stop stop-color="#A999F1"/>
<stop offset="1" stop-color="#A67EF8"/>
</linearGradient>
<linearGradient id="paint3_linear_200_66382" x1="15.9998" y1="15.6729" x2="15.9998" y2="27.356" gradientUnits="userSpaceOnUse">
<stop stop-color="#A999F1"/>
<stop offset="1" stop-color="#A67EF8"/>
</linearGradient>
</defs>
</svg>
