<svg width="28" height="28" viewBox="0 0 16 17" fill="none" xmlns="http://www.w3.org/2000/svg">
    <path d="M13.3333 5.83333H2.66667C2.29848 5.83333 2 6.13181 2 6.5V13.1667C2 13.5349 2.29848 13.8333 2.66667 13.8333H13.3333C13.7015 13.8333 14 13.5349 14 13.1667V6.5C14 6.13181 13.7015 5.83333 13.3333 5.83333Z" fill="url(#paint0_linear)" stroke="url(#paint1_linear)" stroke-width="1.2" stroke-linejoin="round"/>
    <path d="M10.6667 5.83333V4.5C10.6667 4.13181 10.3682 3.83333 10 3.83333H6C5.63181 3.83333 5.33333 4.13181 5.33333 4.5V5.83333" stroke="url(#paint2_linear)" stroke-width="1.2" stroke-linecap="round" stroke-linejoin="round"/>
    <path d="M14 9.16667H2" stroke="url(#paint3_linear)" stroke-width="1.2" stroke-linecap="round" stroke-linejoin="round"/>
    <defs>
        <linearGradient id="paint0_linear" x1="8" y1="5.83333" x2="8" y2="13.8333" gradientUnits="userSpaceOnUse">
            <stop stop-color="#FDF3FE"/>
            <stop offset="1" stop-color="#EDEBFC"/>
        </linearGradient>
        <linearGradient id="paint1_linear" x1="8" y1="5.83333" x2="8" y2="13.8333" gradientUnits="userSpaceOnUse">
            <stop stop-color="#FDF3FE"/>
            <stop offset="1" stop-color="#EDEBFC"/>
        </linearGradient>
        <linearGradient id="paint2_linear" x1="8" y1="3.83333" x2="8" y2="5.83333" gradientUnits="userSpaceOnUse">
            <stop stop-color="#A999F1"/>
            <stop offset="1" stop-color="#A67EF8"/>
        </linearGradient>
        <linearGradient id="paint3_linear" x1="8" y1="9.16667" x2="8" y2="10.1667" gradientUnits="userSpaceOnUse">
            <stop stop-color="#A999F1"/>
            <stop offset="1" stop-color="#A67EF8"/>
        </linearGradient>
    </defs>
</svg>
