<svg width="32" height="32" viewBox="0 0 32 32" fill="none" xmlns="http://www.w3.org/2000/svg">
<path d="M15.8654 13.29C17.594 13.29 18.9953 11.8887 18.9953 10.16C18.9953 8.43138 17.594 7.03003 15.8654 7.03003C14.1367 7.03003 12.7354 8.43138 12.7354 10.16C12.7354 11.8887 14.1367 13.29 15.8654 13.29Z" fill="url(#paint0_linear_200_66558)" stroke="url(#paint1_linear_200_66558)" stroke-linecap="round" stroke-linejoin="round"/>
<path d="M16.2151 20.58C16.2151 20.66 16.2151 20.74 16.2151 20.82H10.2852C10.2852 17.75 12.7652 15.26 15.8452 15.26C17.3252 15.26 18.6652 15.84 19.6652 16.79C17.7152 16.96 16.2052 18.59 16.2052 20.58H16.2151Z" fill="url(#paint2_linear_200_66558)" stroke="url(#paint3_linear_200_66558)" stroke-linecap="round" stroke-linejoin="round"/>
<path d="M7.89531 9.08994C9.11034 9.08994 10.0953 8.10496 10.0953 6.88994C10.0953 5.67491 9.11034 4.68994 7.89531 4.68994C6.68028 4.68994 5.69531 5.67491 5.69531 6.88994C5.69531 8.10496 6.68028 9.08994 7.89531 9.08994Z" fill="url(#paint4_linear_200_66558)" stroke="url(#paint5_linear_200_66558)" stroke-linejoin="round"/>
<path d="M11.8051 14.38H3.99512C3.99512 12.23 5.73513 10.48 7.89513 10.48C10.0551 10.48 11.7951 12.23 11.7951 14.38H11.8051Z" fill="url(#paint6_linear_200_66558)" stroke="url(#paint7_linear_200_66558)" stroke-linejoin="round"/>
<path d="M23.8348 9.08994C25.0498 9.08994 26.0348 8.10496 26.0348 6.88994C26.0348 5.67491 25.0498 4.68994 23.8348 4.68994C22.6198 4.68994 21.6348 5.67491 21.6348 6.88994C21.6348 8.10496 22.6198 9.08994 23.8348 9.08994Z" fill="url(#paint8_linear_200_66558)" stroke="url(#paint9_linear_200_66558)" stroke-linejoin="round"/>
<path d="M27.7348 14.38H19.9248C19.9248 12.23 21.6648 10.48 23.8248 10.48C25.9848 10.48 27.7248 12.23 27.7248 14.38H27.7348Z" fill="url(#paint10_linear_200_66558)" stroke="url(#paint11_linear_200_66558)" stroke-linejoin="round"/>
<path d="M26.4148 22.1798C26.4148 21.9998 26.3948 21.8298 26.3648 21.6498L27.7548 20.8498C27.9948 20.7098 28.0748 20.4098 27.9348 20.1798L27.2848 19.0498C27.1448 18.8098 26.8448 18.7298 26.6148 18.8698L25.5048 19.5098C25.3348 19.6098 25.1248 19.5898 24.9648 19.4798C24.8548 19.3998 24.7348 19.3298 24.6048 19.2698C24.4348 19.1798 24.3148 19.0198 24.3148 18.8198V17.5398C24.3148 17.2698 24.0948 17.0498 23.8248 17.0498H22.5148C22.2448 17.0498 22.0248 17.2698 22.0248 17.5398V18.8198C22.0248 19.0098 21.9048 19.1798 21.7348 19.2698C21.6148 19.3298 21.4948 19.3998 21.3748 19.4798C21.2148 19.5898 21.0048 19.6098 20.8348 19.5098L19.7248 18.8698C19.4848 18.7298 19.1848 18.8098 19.0548 19.0498L18.4048 20.1798C18.2648 20.4198 18.3448 20.7198 18.5848 20.8498L19.9748 21.6498C19.9448 21.8198 19.9248 21.9998 19.9248 22.1798C19.9248 22.3598 19.9448 22.5298 19.9748 22.7098L18.5848 23.5098C18.3448 23.6498 18.2648 23.9498 18.4048 24.1798L19.0548 25.3098C19.1948 25.5498 19.4948 25.6298 19.7248 25.4898L20.8348 24.8498C21.0048 24.7498 21.2148 24.7698 21.3748 24.8798C21.4848 24.9598 21.6048 25.0298 21.7348 25.0898C21.9048 25.1798 22.0248 25.3398 22.0248 25.5398V26.8198C22.0248 27.0898 22.2448 27.3098 22.5148 27.3098H23.8248C24.0948 27.3098 24.3148 27.0898 24.3148 26.8198V25.5398C24.3148 25.3498 24.4348 25.1798 24.6048 25.0898C24.7248 25.0298 24.8448 24.9598 24.9648 24.8798C25.1248 24.7698 25.3348 24.7498 25.5048 24.8498L26.6148 25.4898C26.8548 25.6298 27.1548 25.5498 27.2848 25.3098L27.9348 24.1798C28.0748 23.9398 27.9948 23.6398 27.7548 23.5098L26.3648 22.7098C26.3948 22.5398 26.4148 22.3598 26.4148 22.1798ZM23.1548 24.1998C22.0348 24.1998 21.1348 23.2898 21.1348 22.1798C21.1348 21.0698 22.0448 20.1598 23.1548 20.1598C24.2648 20.1598 25.1748 21.0698 25.1748 22.1798C25.1748 23.2898 24.2648 24.1998 23.1548 24.1998Z" fill="url(#paint12_linear_200_66558)" stroke="url(#paint13_linear_200_66558)" stroke-linecap="round" stroke-linejoin="round"/>
<defs>
<linearGradient id="paint0_linear_200_66558" x1="15.8653" y1="7.03003" x2="15.8653" y2="13.29" gradientUnits="userSpaceOnUse">
<stop stop-color="#A999F1"/>
<stop offset="1" stop-color="#A67EF8"/>
</linearGradient>
<linearGradient id="paint1_linear_200_66558" x1="15.8653" y1="6.53003" x2="15.8653" y2="13.79" gradientUnits="userSpaceOnUse">
<stop stop-color="#A999F1"/>
<stop offset="1" stop-color="#A67EF8"/>
</linearGradient>
<linearGradient id="paint2_linear_200_66558" x1="14.9852" y1="15.26" x2="14.9852" y2="20.82" gradientUnits="userSpaceOnUse">
<stop stop-color="#A999F1"/>
<stop offset="1" stop-color="#A67EF8"/>
</linearGradient>
<linearGradient id="paint3_linear_200_66558" x1="14.9852" y1="14.76" x2="14.9852" y2="21.32" gradientUnits="userSpaceOnUse">
<stop stop-color="#A999F1"/>
<stop offset="1" stop-color="#A67EF8"/>
</linearGradient>
<linearGradient id="paint4_linear_200_66558" x1="7.89531" y1="4.68994" x2="7.89531" y2="9.08994" gradientUnits="userSpaceOnUse">
<stop stop-color="#FDF3FE"/>
<stop offset="1" stop-color="#EDEBFC"/>
</linearGradient>
<linearGradient id="paint5_linear_200_66558" x1="7.89531" y1="4.18994" x2="7.89531" y2="9.58993" gradientUnits="userSpaceOnUse">
<stop stop-color="#FDF3FE"/>
<stop offset="1" stop-color="#EDEBFC"/>
</linearGradient>
<linearGradient id="paint6_linear_200_66558" x1="7.89512" y1="10.48" x2="7.89512" y2="14.38" gradientUnits="userSpaceOnUse">
<stop stop-color="#FDF3FE"/>
<stop offset="1" stop-color="#EDEBFC"/>
</linearGradient>
<linearGradient id="paint7_linear_200_66558" x1="7.89512" y1="9.97998" x2="7.89512" y2="14.88" gradientUnits="userSpaceOnUse">
<stop stop-color="#FDF3FE"/>
<stop offset="1" stop-color="#EDEBFC"/>
</linearGradient>
<linearGradient id="paint8_linear_200_66558" x1="23.8348" y1="4.68994" x2="23.8348" y2="9.08994" gradientUnits="userSpaceOnUse">
<stop stop-color="#FDF3FE"/>
<stop offset="1" stop-color="#EDEBFC"/>
</linearGradient>
<linearGradient id="paint9_linear_200_66558" x1="23.8348" y1="4.18994" x2="23.8348" y2="9.58993" gradientUnits="userSpaceOnUse">
<stop stop-color="#FDF3FE"/>
<stop offset="1" stop-color="#EDEBFC"/>
</linearGradient>
<linearGradient id="paint10_linear_200_66558" x1="23.8348" y1="10.48" x2="23.8348" y2="14.38" gradientUnits="userSpaceOnUse">
<stop stop-color="#FDF3FE"/>
<stop offset="1" stop-color="#EDEBFC"/>
</linearGradient>
<linearGradient id="paint11_linear_200_66558" x1="23.8348" y1="9.97998" x2="23.8348" y2="14.88" gradientUnits="userSpaceOnUse">
<stop stop-color="#FDF3FE"/>
<stop offset="1" stop-color="#EDEBFC"/>
</linearGradient>
<linearGradient id="paint12_linear_200_66558" x1="23.1548" y1="17.0498" x2="23.1548" y2="27.3198" gradientUnits="userSpaceOnUse">
<stop stop-color="#A999F1"/>
<stop offset="1" stop-color="#A67EF8"/>
</linearGradient>
<linearGradient id="paint13_linear_200_66558" x1="23.1548" y1="16.5498" x2="23.1548" y2="27.8198" gradientUnits="userSpaceOnUse">
<stop stop-color="#A999F1"/>
<stop offset="1" stop-color="#A67EF8"/>
</linearGradient>
</defs>
</svg>
