<svg width="32" height="32" viewBox="0 0 32 32" fill="none" xmlns="http://www.w3.org/2000/svg">
<path d="M15.995 12.6901C17.7402 12.6901 19.155 11.2753 19.155 9.53012C19.155 7.7849 17.7402 6.37012 15.995 6.37012C14.2497 6.37012 12.835 7.7849 12.835 9.53012C12.835 11.2753 14.2497 12.6901 15.995 12.6901Z" fill="url(#paint0_linear_200_66538)" stroke="url(#paint1_linear_200_66538)" stroke-linecap="round" stroke-linejoin="round"/>
<path d="M21.615 20.3102H10.375C10.375 17.2102 12.885 14.6902 15.995 14.6902C19.105 14.6902 21.615 17.2102 21.615 20.3102Z" fill="url(#paint2_linear_200_66538)" stroke="url(#paint3_linear_200_66538)" stroke-linecap="round" stroke-linejoin="round"/>
<path d="M7.94559 8.44C9.17166 8.44 10.1656 7.44607 10.1656 6.22C10.1656 4.99393 9.17166 4 7.94559 4C6.71951 4 5.72559 4.99393 5.72559 6.22C5.72559 7.44607 6.71951 8.44 7.94559 8.44Z" fill="url(#paint4_linear_200_66538)" stroke="url(#paint5_linear_200_66538)" stroke-linejoin="round"/>
<path d="M11.8851 13.8001H3.99512C3.99512 11.6201 5.75512 9.8501 7.94512 9.8501C10.1351 9.8501 11.8951 11.6201 11.8951 13.8001H11.8851Z" fill="url(#paint6_linear_200_66538)" stroke="url(#paint7_linear_200_66538)" stroke-linejoin="round"/>
<path d="M24.0452 8.44C25.2713 8.44 26.2652 7.44607 26.2652 6.22C26.2652 4.99393 25.2713 4 24.0452 4C22.8191 4 21.8252 4.99393 21.8252 6.22C21.8252 7.44607 22.8191 8.44 24.0452 8.44Z" fill="url(#paint8_linear_200_66538)" stroke="url(#paint9_linear_200_66538)" stroke-linejoin="round"/>
<path d="M27.9955 13.8001H20.1055C20.1055 11.6201 21.8655 9.8501 24.0555 9.8501C26.2455 9.8501 28.0055 11.6201 28.0055 13.8001H27.9955Z" fill="url(#paint10_linear_200_66538)" stroke="url(#paint11_linear_200_66538)" stroke-linejoin="round"/>
<path d="M27.2552 19.0099C26.3052 18.0599 24.6452 18.0599 23.6952 19.0099C22.8752 19.8299 22.7452 21.0799 23.3052 22.0499L19.7952 25.5599L18.8252 26.5299C18.5752 26.7799 18.5752 27.1999 18.8252 27.4499C18.9552 27.5799 19.1152 27.6399 19.2852 27.6399C19.4552 27.6399 19.6152 27.5799 19.7452 27.4499L20.2552 26.9399L21.1252 27.8099C21.2552 27.9399 21.4152 27.9999 21.5852 27.9999C21.7552 27.9999 21.9152 27.9399 22.0452 27.8099C22.2952 27.5599 22.2952 27.1399 22.0452 26.8899L21.1752 26.0199L21.5952 25.5999L22.0052 26.0099C22.1352 26.1399 22.2952 26.1999 22.4652 26.1999C22.6352 26.1999 22.7952 26.1399 22.9252 26.0099C23.1752 25.7599 23.1752 25.3399 22.9252 25.0899L22.5152 24.6799L24.2252 22.9699C24.6052 23.1899 25.0352 23.3199 25.4752 23.3199C26.1452 23.3199 26.7852 23.0599 27.2552 22.5799C28.2352 21.5999 28.2352 19.9999 27.2552 19.0199V19.0099ZM26.3352 21.6499C25.8752 22.1099 25.0752 22.1099 24.6152 21.6499C24.1452 21.1799 24.1452 20.3999 24.6152 19.9299C24.8452 19.6999 25.1552 19.5699 25.4752 19.5699C25.7952 19.5699 26.1052 19.6999 26.3352 19.9299C26.8052 20.3999 26.8052 21.1799 26.3352 21.6499Z" fill="url(#paint12_linear_200_66538)"/>
<defs>
<linearGradient id="paint0_linear_200_66538" x1="15.995" y1="6.37012" x2="15.995" y2="12.6901" gradientUnits="userSpaceOnUse">
<stop stop-color="#A999F1"/>
<stop offset="1" stop-color="#A67EF8"/>
</linearGradient>
<linearGradient id="paint1_linear_200_66538" x1="-47.3951" y1="5.87012" x2="-46.3951" y2="13.1901" gradientUnits="userSpaceOnUse">
<stop stop-color="#A999F1"/>
<stop offset="1" stop-color="#A67EF8"/>
</linearGradient>
<linearGradient id="paint2_linear_200_66538" x1="15.995" y1="14.6902" x2="15.995" y2="20.3102" gradientUnits="userSpaceOnUse">
<stop stop-color="#A999F1"/>
<stop offset="1" stop-color="#A67EF8"/>
</linearGradient>
<linearGradient id="paint3_linear_200_66538" x1="15.995" y1="14.1902" x2="15.995" y2="20.8102" gradientUnits="userSpaceOnUse">
<stop stop-color="#A999F1"/>
<stop offset="1" stop-color="#A67EF8"/>
</linearGradient>
<linearGradient id="paint4_linear_200_66538" x1="7.94559" y1="4" x2="7.94559" y2="8.44" gradientUnits="userSpaceOnUse">
<stop stop-color="#FDF3FE"/>
<stop offset="1" stop-color="#EDEBFC"/>
</linearGradient>
<linearGradient id="paint5_linear_200_66538" x1="-47.3944" y1="3.5" x2="-46.3944" y2="8.94" gradientUnits="userSpaceOnUse">
<stop stop-color="#FDF3FE"/>
<stop offset="1" stop-color="#EDEBFC"/>
</linearGradient>
<linearGradient id="paint6_linear_200_66538" x1="7.94512" y1="9.8501" x2="7.94512" y2="13.8001" gradientUnits="userSpaceOnUse">
<stop stop-color="#FDF3FE"/>
<stop offset="1" stop-color="#EDEBFC"/>
</linearGradient>
<linearGradient id="paint7_linear_200_66538" x1="7.94512" y1="9.3501" x2="7.94512" y2="14.3001" gradientUnits="userSpaceOnUse">
<stop stop-color="#FDF3FE"/>
<stop offset="1" stop-color="#EDEBFC"/>
</linearGradient>
<linearGradient id="paint8_linear_200_66538" x1="24.0452" y1="-127.54" x2="24.0452" y2="-127.54" gradientUnits="userSpaceOnUse">
<stop stop-color="#FDF3FE"/>
<stop offset="1" stop-color="#EDEBFC"/>
</linearGradient>
<linearGradient id="paint9_linear_200_66538" x1="24.0452" y1="3.5" x2="24.0452" y2="8.94" gradientUnits="userSpaceOnUse">
<stop stop-color="#FDF3FE"/>
<stop offset="1" stop-color="#EDEBFC"/>
</linearGradient>
<linearGradient id="paint10_linear_200_66538" x1="24.0455" y1="9.8501" x2="24.0455" y2="13.8001" gradientUnits="userSpaceOnUse">
<stop stop-color="#FDF3FE"/>
<stop offset="1" stop-color="#EDEBFC"/>
</linearGradient>
<linearGradient id="paint11_linear_200_66538" x1="24.0455" y1="9.3501" x2="24.0455" y2="14.3001" gradientUnits="userSpaceOnUse">
<stop stop-color="#FDF3FE"/>
<stop offset="1" stop-color="#EDEBFC"/>
</linearGradient>
<linearGradient id="paint12_linear_200_66538" x1="23.3152" y1="18.2999" x2="23.3152" y2="27.9999" gradientUnits="userSpaceOnUse">
<stop stop-color="#A999F1"/>
<stop offset="1" stop-color="#A67EF8"/>
</linearGradient>
</defs>
</svg>
