<svg width="16" height="16" viewBox="0 0 16 16" fill="none" xmlns="http://www.w3.org/2000/svg">
<g opacity="0.37">
<path d="M9.66667 8.14286C9.66667 8.40656 9.58847 8.66435 9.44196 8.88362C9.29545 9.10288 9.08721 9.27378 8.84358 9.37469C8.59994 9.47561 8.33185 9.50202 8.07321 9.45057C7.81457 9.39912 7.57699 9.27213 7.39052 9.08566C7.20405 8.89919 7.07707 8.66162 7.02562 8.40298C6.97417 8.14433 7.00058 7.87625 7.10149 7.63261C7.20241 7.38898 7.37331 7.18074 7.59257 7.03423C7.81184 6.88772 8.06963 6.80952 8.33333 6.80952C8.68696 6.80952 9.02609 6.95 9.27614 7.20005C9.52619 7.4501 9.66667 7.78923 9.66667 8.14286ZM8.33333 5.66667C8.59704 5.66667 8.85483 5.58847 9.07409 5.44196C9.29336 5.29545 9.46426 5.08721 9.56517 4.84358C9.66609 4.59994 9.69249 4.33185 9.64105 4.07321C9.5896 3.81457 9.46261 3.57699 9.27614 3.39052C9.08967 3.20405 8.85209 3.07707 8.59345 3.02562C8.33481 2.97417 8.06672 3.00058 7.82309 3.10149C7.57945 3.20241 7.37122 3.37331 7.22471 3.59257C7.0782 3.81184 7 4.06963 7 4.33333C7 4.68696 7.14048 5.02609 7.39052 5.27614C7.64057 5.52619 7.97971 5.66667 8.33333 5.66667ZM8.33333 10.619C8.06963 10.619 7.81184 10.6972 7.59257 10.8438C7.37331 10.9903 7.20241 11.1985 7.10149 11.4421C7.00058 11.6858 6.97417 11.9539 7.02562 12.2125C7.07707 12.4711 7.20405 12.7087 7.39052 12.8952C7.57699 13.0817 7.81457 13.2086 8.07321 13.2601C8.33185 13.3115 8.59994 13.2851 8.84358 13.1842C9.08721 13.0833 9.29545 12.9124 9.44196 12.6931C9.58847 12.4739 9.66667 12.2161 9.66667 11.9524C9.66667 11.5988 9.52619 11.2596 9.27614 11.0096C9.02609 10.7595 8.68696 10.619 8.33333 10.619Z" fill="white"/>
</g>
</svg>
