<svg width="32" height="32" viewBox="0 0 32 32" fill="none" xmlns="http://www.w3.org/2000/svg">
<path d="M16.01 4C9.40001 4 4.01001 9.37 4.00001 15.98C3.99001 22.6 9.37001 28 15.98 28C22.6 28 27.99 22.63 28 16.01C28 9.39 22.63 4 16.01 4ZM19.01 6.55C18.91 6.13 18.95 5.73 19.2 5.37C19.26 5.28 19.33 5.26 19.44 5.29C23.11 6.56 25.55 9.04 26.76 12.73C26.76 12.76 26.77 12.79 26.79 12.86C26.14 12.69 25.56 12.9 24.98 13.09C24.83 13.14 24.74 13.12 24.62 13.02C24.23 12.68 23.75 12.52 23.24 12.53C22.48 12.54 21.96 13.29 22.19 14.03C22.26 14.25 22.36 14.46 22.46 14.72C22.32 14.72 22.2 14.75 22.1 14.72C21.95 14.69 21.79 14.65 21.67 14.56C20.92 14.02 20.17 14.58 20.07 15.37C20.03 15.71 20.14 16 20.34 16.26C20.74 16.78 21.21 17.19 21.85 17.37C21.92 17.39 21.99 17.42 22.09 17.46C21.88 17.79 21.68 18.1 21.48 18.4C21.38 18.55 21.26 18.7 21.14 18.84C20.6 19.48 20.33 20.23 20.3 21.06C20.3 21.17 20.28 21.27 20.28 21.38C20.28 22.04 19.98 22.57 19.51 23.01C19.18 23.31 18.82 23.59 18.47 23.86C18.37 23.94 18.25 23.98 18.14 24.02C17.92 24.1 17.74 24.04 17.59 23.86C17.22 23.41 17.04 22.89 16.97 22.32C16.93 21.98 16.93 21.63 16.91 21.29C16.89 20.95 16.78 20.63 16.63 20.33C16.56 20.18 16.49 20.01 16.5 19.85C16.58 18.74 15.98 18.03 14.79 17.95C14.6 17.94 14.41 17.95 14.23 17.97C13.88 18.02 13.55 17.97 13.22 17.83C13.05 17.76 12.88 17.67 12.71 17.6C12.05 17.31 11.75 16.79 11.73 16.09C11.67 14.37 12.94 13.12 14.67 13.2C15.3 13.23 15.9 13.41 16.5 13.57C17.34 13.79 18.2 13.85 19.06 13.77C19.65 13.72 20.05 13.3 20.11 12.81C20.19 12.03 19.82 11.37 19.12 11.04C18.58 10.78 18 10.72 17.42 10.73C16.97 10.73 16.52 10.78 16.07 10.78C15.81 10.78 15.55 10.75 15.29 10.72C15.14 10.7 15.14 10.6 15.23 10.51C15.32 10.42 15.43 10.34 15.54 10.27C16.05 9.98 16.27 9.52 16.34 8.97C16.4 8.49 16.46 8.39 16.94 8.31C17.31 8.25 17.68 8.22 18.06 8.23C18.78 8.24 19.16 7.88 19.15 7.16C19.15 6.95 19.1 6.74 19.05 6.53L19.01 6.55ZM9.38002 6.92C9.38002 6.92 9.42002 6.92 9.44002 6.93C9.50002 7.46 9.57001 7.99 9.61001 8.52C9.63001 8.86 9.46001 9.14 9.18001 9.33C8.97001 9.47 8.74001 9.59 8.51001 9.69C7.89001 9.96 7.32001 10.31 6.87001 10.84C6.67001 11.07 6.40001 11.23 6.15001 11.4C6.04001 11.47 5.89 11.49 5.74 11.49C6.54 9.62 7.77002 8.11 9.38002 6.91V6.92ZM7.65001 23.31C7.53001 23.33 7.44001 23.31 7.36001 23.2C5.29001 20.64 4.45001 17.72 4.86001 14.45C4.86001 14.41 4.88001 14.38 4.89001 14.33C5.32001 14.37 5.73 14.42 6.1 14.64C6.34 14.79 6.44001 14.99 6.43001 15.28C6.42001 15.78 6.43001 16.28 6.46001 16.78C6.49001 17.26 6.74002 17.65 7.08002 17.99C7.29002 18.2 7.51001 18.38 7.73001 18.58C7.84001 18.68 7.95001 18.78 8.06001 18.88C8.50001 19.29 8.59001 19.76 8.39001 20.33C8.24001 20.74 8.14002 21.16 8.05002 21.59C8.01002 21.8 8.05002 22.02 8.05002 22.24C8.05002 22.46 8.08002 22.69 8.05002 22.91C8.02002 23.16 7.89002 23.27 7.66002 23.3L7.65001 23.31ZM11.8 26.44C13.48 25.59 15.46 25.81 16.76 27.23C15.04 27.35 13.42 27.08 11.8 26.44Z" fill="url(#paint0_linear_200_66530)" stroke="url(#paint1_linear_200_66530)" stroke-miterlimit="10"/>
<path d="M16.7598 27.22C15.0398 27.34 13.4198 27.07 11.7998 26.43C13.4798 25.58 15.4598 25.8 16.7598 27.22Z" fill="url(#paint2_linear_200_66530)" stroke="url(#paint3_linear_200_66530)" stroke-linecap="round" stroke-linejoin="round"/>
<path d="M9.19 9.32992C8.98 9.46992 8.75 9.58992 8.52 9.68992C7.9 9.95992 7.33 10.3099 6.88 10.8399C6.68 11.0699 6.41 11.2299 6.16 11.3999C6.05 11.4699 5.9 11.4899 5.75 11.4899C6.55 9.61991 7.78 8.10991 9.39 6.90991C9.41 6.90991 9.43 6.90991 9.45 6.91991C9.51 7.44991 9.58 7.97992 9.62 8.50992C9.64 8.84992 9.47 9.12992 9.19 9.31992V9.32992Z" fill="url(#paint4_linear_200_66530)" stroke="url(#paint5_linear_200_66530)" stroke-linecap="round" stroke-linejoin="round"/>
<path d="M8.03973 21.5901C7.99973 21.8001 8.03973 22.0201 8.03973 22.2401C8.03973 22.4601 8.06973 22.6901 8.03973 22.9101C8.00973 23.1601 7.87973 23.2701 7.64973 23.3001C7.52973 23.3201 7.43974 23.3001 7.35974 23.1901C5.28974 20.6301 4.44974 17.7101 4.85974 14.4401C4.85974 14.4001 4.87974 14.3701 4.88974 14.3201C5.31974 14.3601 5.72973 14.4101 6.09973 14.6301C6.33973 14.7801 6.43973 14.9801 6.42973 15.2701C6.41973 15.7701 6.42973 16.2701 6.45973 16.7701C6.48973 17.2501 6.73974 17.6401 7.07974 17.9801C7.28974 18.1901 7.50973 18.3701 7.72973 18.5701C7.83973 18.6701 7.94973 18.7701 8.05973 18.8701C8.49973 19.2801 8.58974 19.7501 8.38974 20.3201C8.23974 20.7301 8.13974 21.1501 8.04974 21.5801L8.03973 21.5901Z" fill="url(#paint6_linear_200_66530)" stroke="url(#paint7_linear_200_66530)" stroke-linecap="round" stroke-linejoin="round"/>
<path d="M26.7896 12.8501C26.1396 12.6801 25.5596 12.8901 24.9796 13.0801C24.8296 13.1301 24.7396 13.1101 24.6196 13.0101C24.2296 12.6701 23.7496 12.5101 23.2396 12.5201C22.4796 12.5301 21.9596 13.2801 22.1896 14.0201C22.2596 14.2401 22.3596 14.4501 22.4596 14.7101C22.3196 14.7101 22.1996 14.7401 22.0996 14.7101C21.9496 14.6801 21.7896 14.6401 21.6696 14.5501C20.9196 14.0101 20.1696 14.5701 20.0696 15.3601C20.0296 15.7001 20.1396 15.9901 20.3396 16.2501C20.7396 16.7701 21.2096 17.1801 21.8496 17.3601C21.9196 17.3801 21.9896 17.4101 22.0896 17.4501C21.8796 17.7801 21.6796 18.0901 21.4796 18.3901C21.3796 18.5401 21.2596 18.6901 21.1396 18.8301C20.5996 19.4701 20.3296 20.2201 20.2996 21.0501C20.2996 21.1601 20.2796 21.2601 20.2796 21.3701C20.2796 22.0301 19.9796 22.5601 19.5096 23.0001C19.1796 23.3001 18.8196 23.5801 18.4696 23.8501C18.3696 23.9301 18.2496 23.9701 18.1396 24.0101C17.9196 24.0901 17.7396 24.0301 17.5896 23.8501C17.2196 23.4001 17.0396 22.8801 16.9696 22.3101C16.9296 21.9701 16.9296 21.6201 16.9096 21.2801C16.8896 20.9401 16.7796 20.6201 16.6296 20.3201C16.5596 20.1701 16.4896 20.0001 16.4996 19.8401C16.5796 18.7301 15.9796 18.0201 14.7896 17.9401C14.5996 17.9301 14.4096 17.9401 14.2296 17.9601C13.8796 18.0101 13.5496 17.9601 13.2196 17.8201C13.0496 17.7501 12.8796 17.6601 12.7096 17.5901C12.0496 17.3001 11.7496 16.7801 11.7296 16.0801C11.6696 14.3601 12.9396 13.1101 14.6696 13.1901C15.2996 13.2201 15.8996 13.4001 16.4996 13.5601C17.3396 13.7801 18.1996 13.8401 19.0596 13.7601C19.6496 13.7101 20.0496 13.2901 20.1096 12.8001C20.1896 12.0201 19.8196 11.3601 19.1196 11.0301C18.5796 10.7701 17.9996 10.7101 17.4196 10.7201C16.9696 10.7201 16.5196 10.7701 16.0696 10.7701C15.8096 10.7701 15.5496 10.7401 15.2896 10.7101C15.1396 10.6901 15.1396 10.5901 15.2296 10.5001C15.3196 10.4101 15.4296 10.3301 15.5396 10.2601C16.0496 9.97008 16.2696 9.51007 16.3396 8.96007C16.3996 8.48007 16.4596 8.38007 16.9396 8.30007C17.3096 8.24007 17.6796 8.21007 18.0596 8.22007C18.7796 8.23007 19.1596 7.87007 19.1496 7.15007C19.1496 6.94007 19.0996 6.73007 19.0496 6.52007C18.9496 6.10007 18.9896 5.70007 19.2396 5.34007C19.2996 5.25007 19.3696 5.23007 19.4796 5.26007C23.1496 6.53007 25.5896 9.01007 26.7996 12.7001C26.7996 12.7301 26.8096 12.7601 26.8296 12.8301L26.7896 12.8501Z" fill="url(#paint8_linear_200_66530)" stroke="url(#paint9_linear_200_66530)" stroke-linecap="round" stroke-linejoin="round"/>
<defs>
<linearGradient id="paint0_linear_200_66530" x1="16" y1="4" x2="16" y2="28" gradientUnits="userSpaceOnUse">
<stop stop-color="#FDF3FE"/>
<stop offset="1" stop-color="#EDEBFC"/>
</linearGradient>
<linearGradient id="paint1_linear_200_66530" x1="16" y1="3.5" x2="16" y2="28.5" gradientUnits="userSpaceOnUse">
<stop stop-color="#FDF3FE"/>
<stop offset="1" stop-color="#EDEBFC"/>
</linearGradient>
<linearGradient id="paint2_linear_200_66530" x1="14.2798" y1="25.94" x2="14.2798" y2="27.25" gradientUnits="userSpaceOnUse">
<stop stop-color="#A999F1"/>
<stop offset="1" stop-color="#A67EF8"/>
</linearGradient>
<linearGradient id="paint3_linear_200_66530" x1="14.2798" y1="25.44" x2="14.2798" y2="27.75" gradientUnits="userSpaceOnUse">
<stop stop-color="#A999F1"/>
<stop offset="1" stop-color="#A67EF8"/>
</linearGradient>
<linearGradient id="paint4_linear_200_66530" x1="7.68" y1="6.90991" x2="7.68" y2="11.4899" gradientUnits="userSpaceOnUse">
<stop stop-color="#A999F1"/>
<stop offset="1" stop-color="#A67EF8"/>
</linearGradient>
<linearGradient id="paint5_linear_200_66530" x1="7.68" y1="6.40991" x2="7.68" y2="11.9899" gradientUnits="userSpaceOnUse">
<stop stop-color="#A999F1"/>
<stop offset="1" stop-color="#A67EF8"/>
</linearGradient>
<linearGradient id="paint6_linear_200_66530" x1="6.62974" y1="14.3201" x2="6.62974" y2="23.3101" gradientUnits="userSpaceOnUse">
<stop stop-color="#A999F1"/>
<stop offset="1" stop-color="#A67EF8"/>
</linearGradient>
<linearGradient id="paint7_linear_200_66530" x1="6.62974" y1="13.8201" x2="6.62974" y2="23.8101" gradientUnits="userSpaceOnUse">
<stop stop-color="#A999F1"/>
<stop offset="1" stop-color="#A67EF8"/>
</linearGradient>
<linearGradient id="paint8_linear_200_66530" x1="19.2396" y1="5.27007" x2="19.2396" y2="24.0601" gradientUnits="userSpaceOnUse">
<stop stop-color="#A999F1"/>
<stop offset="1" stop-color="#A67EF8"/>
</linearGradient>
<linearGradient id="paint9_linear_200_66530" x1="19.2396" y1="4.77007" x2="19.2396" y2="24.5601" gradientUnits="userSpaceOnUse">
<stop stop-color="#A999F1"/>
<stop offset="1" stop-color="#A67EF8"/>
</linearGradient>
</defs>
</svg>
