<svg width="32" height="32" viewBox="0 0 32 32" fill="none" xmlns="http://www.w3.org/2000/svg">
<path d="M24.5391 7.96501C24.4391 7.73501 24.2591 7.55502 24.0291 7.45502C23.9191 7.41502 23.8091 7.39501 23.6991 7.38501H23.6791H14.7591C14.2391 7.38501 13.8191 7.80501 13.8191 8.32501C13.8191 8.84501 14.2391 9.26501 14.7591 9.26501H21.4091L7.6691 23.005C7.2991 23.375 7.2991 23.965 7.6691 24.335C7.8491 24.515 8.08909 24.615 8.32909 24.615C8.56909 24.615 8.80909 24.525 8.98909 24.335L15.4091 17.915L19.8791 13.455C19.8791 13.455 19.8891 13.435 19.8991 13.425L22.7291 10.595V17.245C22.7291 17.765 23.1491 18.185 23.6691 18.185C24.1891 18.185 24.6091 17.765 24.6091 17.245V8.32501C24.6091 8.20501 24.5891 8.08501 24.5391 7.96501Z" fill="url(#paint0_linear_200_66454)" stroke="url(#paint1_linear_200_66454)" stroke-miterlimit="10"/>
<defs>
<linearGradient id="paint0_linear_200_66454" x1="15.9991" y1="7.38501" x2="15.9991" y2="24.615" gradientUnits="userSpaceOnUse">
<stop stop-color="#A999F1"/>
<stop offset="1" stop-color="#A67EF8"/>
</linearGradient>
<linearGradient id="paint1_linear_200_66454" x1="15.9991" y1="6.88501" x2="15.9991" y2="25.115" gradientUnits="userSpaceOnUse">
<stop stop-color="#A999F1"/>
<stop offset="1" stop-color="#A67EF8"/>
</linearGradient>
</defs>
</svg>
