<svg width="28" height="28" viewBox="0 0 32 32" fill="none" xmlns="http://www.w3.org/2000/svg">
    <path
        d="M12.33 15.9053H5.4C5.18 15.9053 5 16.0853 5 16.3053V25.7253C5 26.9853 6.02 28.0053 7.28 28.0053H12.33C12.55 28.0053 12.73 27.8253 12.73 27.6053V16.3053C12.73 16.0853 12.55 15.9053 12.33 15.9053Z"
        fill="url(#paint0_linear_200_67209)" />
    <path
        d="M27.3005 9.33521H4.70047C4.4409 9.33521 4.23047 9.54563 4.23047 9.8052V14.6052C4.23047 14.8648 4.4409 15.0752 4.70047 15.0752H27.3005C27.56 15.0752 27.7705 14.8648 27.7705 14.6052V9.8052C27.7705 9.54563 27.56 9.33521 27.3005 9.33521Z"
        fill="url(#paint1_linear_200_67209)" />
    <path
        d="M17.9607 16.0051H14.0207C13.855 16.0051 13.7207 16.1394 13.7207 16.3051V27.6051C13.7207 27.7708 13.855 27.9051 14.0207 27.9051H17.9607C18.1264 27.9051 18.2607 27.7708 18.2607 27.6051V16.3051C18.2607 16.1394 18.1264 16.0051 17.9607 16.0051Z"
        fill="url(#paint2_linear_200_67209)" />
    <path
        d="M26.5907 15.9053H19.6607C19.4407 15.9053 19.2607 16.0853 19.2607 16.3053V27.6053C19.2607 27.8253 19.4407 28.0053 19.6607 28.0053H24.7107C25.9707 28.0053 26.9907 26.9853 26.9907 25.7253V16.3053C26.9907 16.0853 26.8107 15.9053 26.5907 15.9053Z"
        fill="url(#paint3_linear_200_67209)" />
    <path
        d="M14.4203 8.79512H10.4303C9.11027 8.79512 8.03027 7.71512 8.03027 6.39512C8.03027 5.07512 9.10027 3.99512 10.4203 3.99512C10.7703 4.00512 13.2803 4.05512 15.0603 7.77512C15.1603 7.99512 15.1503 8.25512 15.0203 8.45512C14.8903 8.66512 14.6703 8.78512 14.4203 8.78512V8.79512ZM10.4803 5.41512C10.4803 5.41512 10.4403 5.41512 10.4303 5.41512C9.89028 5.41512 9.44027 5.85512 9.44027 6.39512C9.44027 6.93512 9.88028 7.38512 10.4303 7.38512H13.2203C11.9603 5.47512 10.6303 5.41512 10.4803 5.41512Z"
        fill="url(#paint4_linear_200_67209)" />
    <path
        d="M20.7803 8.79523H16.7903C16.5503 8.79523 16.3203 8.67523 16.1903 8.46523C16.0603 8.25523 16.0503 8.00523 16.1503 7.78523C17.9403 4.05523 20.4503 3.98523 20.7903 3.99523C22.1103 3.99523 23.1803 5.07523 23.1803 6.39523C23.1803 7.71523 22.1103 8.79523 20.7803 8.79523ZM17.9903 7.38523H20.7803C21.3203 7.38523 21.7603 6.94523 21.7603 6.39523C21.7603 5.84523 21.3003 5.43523 20.7403 5.40523C20.6503 5.40523 19.2803 5.40523 17.9903 7.37523V7.38523Z"
        fill="url(#paint5_linear_200_67209)" />
    <defs>
        <linearGradient id="paint0_linear_200_67209" x1="8.87" y1="15.9053" x2="8.87" y2="28.0053"
            gradientUnits="userSpaceOnUse">
            <stop stop-color="#FDF3FE" />
            <stop offset="1" stop-color="#EDEBFC" />
        </linearGradient>
        <linearGradient id="paint1_linear_200_67209" x1="16.0005" y1="9.33521" x2="16.0005" y2="15.0752"
            gradientUnits="userSpaceOnUse">
            <stop stop-color="#A999F1" />
            <stop offset="1" stop-color="#A67EF8" />
        </linearGradient>
        <linearGradient id="paint2_linear_200_67209" x1="16.0007" y1="16.0051" x2="16.0007" y2="27.9051"
            gradientUnits="userSpaceOnUse">
            <stop stop-color="#A999F1" />
            <stop offset="1" stop-color="#A67EF8" />
        </linearGradient>
        <linearGradient id="paint3_linear_200_67209" x1="23.1307" y1="15.9053" x2="23.1307" y2="28.0053"
            gradientUnits="userSpaceOnUse">
            <stop stop-color="#FDF3FE" />
            <stop offset="1" stop-color="#EDEBFC" />
        </linearGradient>
        <linearGradient id="paint4_linear_200_67209" x1="11.5803" y1="3.99512" x2="11.5803" y2="8.79512"
            gradientUnits="userSpaceOnUse">
            <stop stop-color="#A999F1" />
            <stop offset="1" stop-color="#A67EF8" />
        </linearGradient>
        <linearGradient id="paint5_linear_200_67209" x1="19.6303" y1="3.99523" x2="19.6303" y2="8.79523"
            gradientUnits="userSpaceOnUse">
            <stop stop-color="#A999F1" />
            <stop offset="1" stop-color="#A67EF8" />
        </linearGradient>
    </defs>
</svg>