<svg width="25" height="25" viewBox="0 0 32 32" fill="none" xmlns="http://www.w3.org/2000/svg">
    <path
        d="M23.3251 7.97256H11.1751L13.4951 5.65255C13.8751 5.27255 13.8751 4.66256 13.4951 4.28256C13.1151 3.90256 12.5051 3.90256 12.1251 4.28256L7.98508 8.42256C7.80508 8.60256 7.70508 8.85256 7.70508 9.11256C7.70508 9.37256 7.80508 9.61255 7.99508 9.79255L12.1351 13.9125C12.3251 14.1025 12.5651 14.1926 12.8151 14.1926C13.0651 14.1926 13.3151 14.0925 13.5051 13.9125C13.8851 13.5325 13.8751 12.9226 13.5051 12.5426L10.8451 9.90255H22.3651V14.6926C22.3651 15.2226 22.7951 15.6625 23.3351 15.6625C23.8751 15.6625 24.3051 15.2326 24.3051 14.6926V8.94256C24.3051 8.41256 23.8751 7.97256 23.3351 7.97256H23.3251Z"
        fill="url(#paint0_linear_200_66852)" />
    <path
        d="M24.0053 22.2125L19.8653 18.0925C19.4853 17.7225 18.8753 17.7225 18.4953 18.0925C18.1153 18.4725 18.1253 19.0825 18.4953 19.4625L21.1553 22.1025H9.63531V17.3125C9.63531 16.7825 9.20531 16.3425 8.66531 16.3425C8.12531 16.3425 7.69531 16.7725 7.69531 17.3125V23.0625C7.69531 23.5925 8.12531 24.0325 8.66531 24.0325H20.8153L18.4953 26.3525C18.1153 26.7325 18.1153 27.3425 18.4953 27.7225C18.6853 27.9125 18.9353 28.0025 19.1753 28.0025C19.4153 28.0025 19.6653 27.9125 19.8553 27.7225L23.9953 23.5825C24.1753 23.4025 24.2753 23.1525 24.2753 22.8925C24.2753 22.6325 24.1753 22.3925 23.9853 22.2125H24.0053Z"
        fill="url(#paint1_linear_200_66852)" />
    <defs>
        <linearGradient id="paint0_linear_200_66852" x1="15.9951" y1="4.00256" x2="15.9951" y2="15.6525"
            gradientUnits="userSpaceOnUse">
            <stop stop-color="#FDF3FE" />
            <stop offset="1" stop-color="#EDEBFC" />
        </linearGradient>
        <linearGradient id="paint1_linear_200_66852" x1="15.9953" y1="16.3525" x2="15.9953" y2="28.0025"
            gradientUnits="userSpaceOnUse">
            <stop stop-color="#FDF3FE" />
            <stop offset="1" stop-color="#EDEBFC" />
        </linearGradient>
    </defs>
</svg>