<svg width="32" height="32" viewBox="0 0 32 32" fill="none" xmlns="http://www.w3.org/2000/svg">
<path d="M23.6555 16C23.6555 15.58 23.5955 15.17 23.5355 14.76L26.7955 12.88C27.3455 12.56 27.5355 11.85 27.2155 11.3L25.6755 8.63995C25.3555 8.08995 24.6455 7.89995 24.0955 8.21995L21.4855 9.72995C21.1155 9.94995 20.6455 9.93995 20.2855 9.69995C19.9755 9.48995 19.6455 9.29995 19.3055 9.12995C18.9255 8.93995 18.6955 8.53995 18.6955 8.11995V5.10995C18.6955 4.46995 18.1755 3.94995 17.5355 3.94995H14.4655C13.8255 3.94995 13.3055 4.46995 13.3055 5.10995V8.11995C13.3055 8.53995 13.0755 8.94995 12.6955 9.12995C12.3555 9.29995 12.0255 9.48995 11.7155 9.69995C11.3555 9.94995 10.8955 9.94995 10.5155 9.72995C9.81546 9.32995 8.70546 8.68995 7.90546 8.21995C7.35546 7.89995 6.64546 8.08995 6.32546 8.63995L4.78546 11.3C4.46546 11.85 4.65546 12.56 5.20546 12.88L8.46546 14.76C8.39546 15.16 8.34546 15.57 8.34546 16C8.34546 16.43 8.40546 16.83 8.46546 17.24L5.20546 19.12C4.65546 19.44 4.46546 20.15 4.78546 20.7L6.32546 23.36C6.64546 23.91 7.35546 24.1 7.90546 23.78L10.5155 22.27C10.8855 22.05 11.3555 22.06 11.7155 22.3C12.0255 22.51 12.3555 22.7 12.6955 22.87C13.0755 23.06 13.3055 23.46 13.3055 23.88V26.89C13.3055 27.53 13.8255 28.05 14.4655 28.05H17.5355C18.1755 28.05 18.6955 27.53 18.6955 26.89V23.88C18.6955 23.46 18.9255 23.05 19.3055 22.87C19.6455 22.7 19.9755 22.51 20.2855 22.3C20.6455 22.05 21.1055 22.05 21.4855 22.27C22.1855 22.67 23.2955 23.31 24.0955 23.78C24.6455 24.1 25.3555 23.91 25.6755 23.36L27.2155 20.7C27.5355 20.15 27.3455 19.44 26.7955 19.12L23.5355 17.24C23.6055 16.84 23.6555 16.43 23.6555 16ZM16.6355 18.46C14.7455 18.91 13.0955 17.26 13.5455 15.37C13.7555 14.48 14.4855 13.76 15.3755 13.54C17.2655 13.08 18.9155 14.74 18.4655 16.63C18.2555 17.52 17.5255 18.24 16.6355 18.46Z" fill="url(#paint0_linear_200_67123)" stroke="url(#paint1_linear_200_67123)" stroke-linejoin="round"/>
<path d="M16.0152 19.1903C17.777 19.1903 19.2052 17.7621 19.2052 16.0003C19.2052 14.2385 17.777 12.8103 16.0152 12.8103C14.2534 12.8103 12.8252 14.2385 12.8252 16.0003C12.8252 17.7621 14.2534 19.1903 16.0152 19.1903Z" fill="url(#paint2_linear_200_67123)" stroke="url(#paint3_linear_200_67123)" stroke-linecap="round" stroke-linejoin="round"/>
<defs>
<linearGradient id="paint0_linear_200_67123" x1="16.0155" y1="3.94995" x2="16.0155" y2="28.05" gradientUnits="userSpaceOnUse">
<stop stop-color="#FDF3FE"/>
<stop offset="1" stop-color="#EDEBFC"/>
</linearGradient>
<linearGradient id="paint1_linear_200_67123" x1="4.15546" y1="3.44995" x2="5.15546" y2="28.55" gradientUnits="userSpaceOnUse">
<stop stop-color="#FDF3FE"/>
<stop offset="1" stop-color="#EDEBFC"/>
</linearGradient>
<linearGradient id="paint2_linear_200_67123" x1="16.0152" y1="12.8103" x2="16.0152" y2="19.1903" gradientUnits="userSpaceOnUse">
<stop stop-color="#A999F1"/>
<stop offset="1" stop-color="#A67EF8"/>
</linearGradient>
<linearGradient id="paint3_linear_200_67123" x1="4.1552" y1="12.3103" x2="5.1552" y2="19.6903" gradientUnits="userSpaceOnUse">
<stop stop-color="#A999F1"/>
<stop offset="1" stop-color="#A67EF8"/>
</linearGradient>
</defs>
</svg>
