<svg width="27" height="27" viewBox="0 0 32 32" fill="none" xmlns="http://www.w3.org/2000/svg">
    <path d="M25.2445 8.22485L9.60449 16.0449L25.2445 23.8649" stroke="url(#paint0_linear_200_66682)" stroke-width="2"
        stroke-linecap="round" stroke-linejoin="round" />
    <path
        d="M8.6748 19.2949C10.4697 19.2949 11.9248 17.8398 11.9248 16.0449C11.9248 14.25 10.4697 12.7949 8.6748 12.7949C6.87987 12.7949 5.4248 14.25 5.4248 16.0449C5.4248 17.8398 6.87987 19.2949 8.6748 19.2949Z"
        fill="url(#paint1_linear_200_66682)" stroke="url(#paint2_linear_200_66682)" stroke-linejoin="round" />
    <path
        d="M23.3252 25.7051C25.1201 25.7051 26.5752 24.25 26.5752 22.4551C26.5752 20.6602 25.1201 19.2051 23.3252 19.2051C21.5303 19.2051 20.0752 20.6602 20.0752 22.4551C20.0752 24.25 21.5303 25.7051 23.3252 25.7051Z"
        fill="url(#paint3_linear_200_66682)" stroke="url(#paint4_linear_200_66682)" stroke-linejoin="round" />
    <path
        d="M23.3252 12.7949C25.1201 12.7949 26.5752 11.3398 26.5752 9.54492C26.5752 7.75 25.1201 6.29492 23.3252 6.29492C21.5303 6.29492 20.0752 7.75 20.0752 9.54492C20.0752 11.3398 21.5303 12.7949 23.3252 12.7949Z"
        fill="url(#paint5_linear_200_66682)" stroke="url(#paint6_linear_200_66682)" stroke-linejoin="round" />
    <defs>
        <linearGradient id="paint0_linear_200_66682" x1="17.4245" y1="7.22485" x2="17.4245" y2="24.8649"
            gradientUnits="userSpaceOnUse">
            <stop stop-color="#A999F1" />
            <stop offset="1" stop-color="#A67EF8" />
        </linearGradient>
        <linearGradient id="paint1_linear_200_66682" x1="8.6748" y1="12.7949" x2="8.6748" y2="19.2949"
            gradientUnits="userSpaceOnUse">
            <stop stop-color="#FDF3FE" />
            <stop offset="1" stop-color="#EDEBFC" />
        </linearGradient>
        <linearGradient id="paint2_linear_200_66682" x1="8.6748" y1="12.4062" x2="8.6748" y2="19.6837"
            gradientUnits="userSpaceOnUse">
            <stop stop-color="#FDF3FE" />
            <stop offset="1" stop-color="#EDEBFC" />
        </linearGradient>
        <linearGradient id="paint3_linear_200_66682" x1="23.3252" y1="19.1973" x2="23.3252" y2="25.7051"
            gradientUnits="userSpaceOnUse">
            <stop stop-color="#FDF3FE" />
            <stop offset="1" stop-color="#EDEBFC" />
        </linearGradient>
        <linearGradient id="paint4_linear_200_66682" x1="23.3252" y1="18.8085" x2="23.3252" y2="26.0938"
            gradientUnits="userSpaceOnUse">
            <stop stop-color="#FDF3FE" />
            <stop offset="1" stop-color="#EDEBFC" />
        </linearGradient>
        <linearGradient id="paint5_linear_200_66682" x1="23.3252" y1="6.29492" x2="23.3252" y2="12.7949"
            gradientUnits="userSpaceOnUse">
            <stop stop-color="#FDF3FE" />
            <stop offset="1" stop-color="#EDEBFC" />
        </linearGradient>
        <linearGradient id="paint6_linear_200_66682" x1="23.3252" y1="5.90617" x2="23.3252" y2="13.1837"
            gradientUnits="userSpaceOnUse">
            <stop stop-color="#FDF3FE" />
            <stop offset="1" stop-color="#EDEBFC" />
        </linearGradient>
    </defs>
</svg>