<svg width="24" height="24" viewBox="0 0 24 24" fill="none" xmlns="http://www.w3.org/2000/svg">
    <path
        d="M20.09 18.2749C20.09 20.4149 18.68 22.2349 16.73 22.8449C16.75 22.7349 16.77 22.6349 16.77 22.5149C16.77 21.5149 15.96 20.7049 14.96 20.7049H13.83C13.36 20.7049 12.92 20.8949 12.58 21.2249C12.03 21.1549 11.61 21.0249 11.32 20.8749C10.83 20.1249 10.54 19.2349 10.54 18.2849C10.54 15.6449 12.68 13.5049 15.32 13.5049C17.96 13.5049 20.09 15.6449 20.09 18.2849V18.2749Z"
        fill="url(#paint0_linear_200_67219)" />
    <path
        d="M21.9699 16.5649H21.7899C21.1899 13.5449 18.5099 11.2549 15.3199 11.2549C12.1299 11.2549 9.44992 13.5449 8.84992 16.5649H8.66992C7.56992 16.5649 6.66992 17.4649 6.66992 18.5649C6.66992 19.6649 7.56992 20.5649 8.66992 20.5649H8.82992C8.93992 20.9249 9.15992 21.3949 9.62992 21.8349C10.3399 22.5049 11.3799 22.8849 12.7099 22.9949C12.8999 23.4249 13.3299 23.7349 13.8299 23.7349H14.9599C15.6399 23.7349 16.1899 23.1849 16.1899 22.5049C16.1899 21.8249 15.6399 21.2749 14.9599 21.2749H13.8299C13.4099 21.2749 13.0499 21.5049 12.8299 21.8249C10.0699 21.5949 9.89992 20.0749 9.88992 19.9549V17.8449C9.88992 14.8549 12.3199 12.4249 15.3099 12.4249C18.2999 12.4249 20.7299 14.8549 20.7299 17.8449V19.9749C20.7299 20.3049 20.9899 20.5649 21.3199 20.5649H21.9599C23.0599 20.5649 23.9599 19.6649 23.9599 18.5649C23.9599 17.4649 23.0599 16.5649 21.9599 16.5649H21.9699Z"
        fill="url(#paint1_linear_200_67219)" />
    <path
        d="M18.6702 1.24489V10.2249C18.6702 10.5649 18.3402 10.8149 18.0302 10.7049C17.2302 10.4449 16.3902 10.3049 15.5202 10.3049C13.0702 10.3049 10.8302 11.4149 9.32021 13.1849C9.23021 13.2949 9.09021 13.3649 8.95021 13.3649H4.98021C4.85021 13.3649 4.73021 13.4149 4.64021 13.4949L0.830206 17.0249C0.740206 17.1049 0.620206 17.1449 0.510206 17.1449C0.440206 17.1449 0.380206 17.1349 0.320206 17.1049C0.150206 17.0349 0.0402062 16.8649 0.0402062 16.6749V1.24489C0.0302062 0.704893 0.470206 0.264893 1.01021 0.264893H17.7002C18.2402 0.264893 18.6802 0.704893 18.6802 1.24489H18.6702Z"
        fill="url(#paint2_linear_200_67219)" />
    <path d="M9.34961 3.80493V7.50493" stroke="url(#paint3_linear_200_67219)" stroke-width="1.18" stroke-miterlimit="10"
        stroke-linecap="round" />
    <circle cx="9.34977" cy="9.26505" r="0.59" fill="url(#paint4_linear_200_67219)" />
    <defs>
        <linearGradient id="paint0_linear_200_67219" x1="15.32" y1="13.4949" x2="15.32" y2="22.8449"
            gradientUnits="userSpaceOnUse">
            <stop stop-color="#A999F1" />
            <stop offset="1" stop-color="#A67EF8" />
        </linearGradient>
        <linearGradient id="paint1_linear_200_67219" x1="15.3199" y1="11.2549" x2="15.3199" y2="23.7449"
            gradientUnits="userSpaceOnUse">
            <stop stop-color="#A999F1" />
            <stop offset="1" stop-color="#A67EF8" />
        </linearGradient>
        <linearGradient id="paint2_linear_200_67219" x1="9.35021" y1="0.264893" x2="9.35021" y2="17.1449"
            gradientUnits="userSpaceOnUse">
            <stop stop-color="#FDF3FE" />
            <stop offset="1" stop-color="#EDEBFC" />
        </linearGradient>
        <linearGradient id="paint3_linear_200_67219" x1="9.35" y1="3.80493" x2="9.35" y2="7.50493"
            gradientUnits="userSpaceOnUse">
            <stop stop-color="#A999F1" />
            <stop offset="1" stop-color="#A67EF8" />
        </linearGradient>
        <linearGradient id="paint4_linear_200_67219" x1="9.34977" y1="8.68505" x2="9.34977" y2="9.85505"
            gradientUnits="userSpaceOnUse">
            <stop stop-color="#A999F1" />
            <stop offset="1" stop-color="#A67EF8" />
        </linearGradient>
    </defs>
</svg>