<svg width="28" height="28" viewBox="0 0 32 31" fill="none" xmlns="http://www.w3.org/2000/svg">
    <path
        d="M26.9902 6.81998V24.1606C26.9902 25.759 25.6602 27.0572 24.0102 27.0572H7.2002C8.3902 27.0572 9.38019 26.1078 9.38019 24.9453V6.81998C9.38019 5.22154 10.7102 3.93311 12.3602 3.93311H24.0102C25.6602 3.93311 26.9902 5.22154 26.9902 6.81998Z"
        fill="url(#paint0_linear_200_66747)" stroke="url(#paint1_linear_200_66747)" stroke-width="1.5"
        stroke-linejoin="round" />
    <path d="M5.00977 12.991V24.955C5.00977 26.1175 5.98976 27.0669 7.18976 27.0669"
        stroke="url(#paint2_linear_200_66747)" stroke-width="1.5" stroke-linecap="round" stroke-linejoin="round" />
    <path d="M13.7197 22.0293H23.4897" stroke="url(#paint3_linear_200_66747)" stroke-width="1.5" stroke-miterlimit="10"
        stroke-linecap="round" />
    <path d="M13.7197 17.6699H23.4897" stroke="url(#paint4_linear_200_66747)" stroke-width="1.5" stroke-miterlimit="10"
        stroke-linecap="round" />
    <path d="M13.7197 13.3105H23.4897" stroke="url(#paint5_linear_200_66747)" stroke-width="1.5" stroke-miterlimit="10"
        stroke-linecap="round" />
    <path d="M13.7197 8.95117H23.4897" stroke="url(#paint6_linear_200_66747)" stroke-width="1.5" stroke-miterlimit="10"
        stroke-linecap="round" />

    <defs>
        <linearGradient id="paint0_linear_200_66747" x1="17.0902" y1="3.93311" x2="17.0902" y2="27.0572"
            gradientUnits="userSpaceOnUse">
            <stop stop-color="#FDF3FE" />
            <stop offset="1" stop-color="#EDEBFC" />
        </linearGradient>
        <linearGradient id="paint1_linear_200_66747" x1="17.0902" y1="3.20654" x2="17.0902" y2="27.7837"
            gradientUnits="userSpaceOnUse">
            <stop stop-color="#FDF3FE" />
            <stop offset="1" stop-color="#EDEBFC" />
        </linearGradient>
        <linearGradient id="paint2_linear_200_66747" x1="6.09976" y1="12.2644" x2="6.09976" y2="27.7838"
            gradientUnits="userSpaceOnUse">
            <stop stop-color="#FDF3FE" />
            <stop offset="1" stop-color="#EDEBFC" />
        </linearGradient>
        <linearGradient id="paint3_linear_200_66747" x1="13.7197" y1="22.0293" x2="23.4897" y2="22.0293"
            gradientUnits="userSpaceOnUse">
            <stop stop-color="#A999F1" />
            <stop offset="1" stop-color="#A67EF8" />
        </linearGradient>
        <linearGradient id="paint4_linear_200_66747" x1="13.7197" y1="17.6699" x2="23.4897" y2="17.6699"
            gradientUnits="userSpaceOnUse">
            <stop stop-color="#A999F1" />
            <stop offset="1" stop-color="#A67EF8" />
        </linearGradient>
        <linearGradient id="paint5_linear_200_66747" x1="13.7197" y1="13.3105" x2="23.4897" y2="13.3105"
            gradientUnits="userSpaceOnUse">
            <stop stop-color="#A999F1" />
            <stop offset="1" stop-color="#A67EF8" />
        </linearGradient>
        <linearGradient id="paint6_linear_200_66747" x1="13.7197" y1="8.95117" x2="23.4897" y2="8.95117"
            gradientUnits="userSpaceOnUse">
            <stop stop-color="#A999F1" />
            <stop offset="1" stop-color="#A67EF8" />
        </linearGradient>
    </defs>
</svg>