<svg width="32" height="32" viewBox="0 0 32 32" fill="none" xmlns="http://www.w3.org/2000/svg">
    <defs>
        <linearGradient id="paint0_linear_200_66632" x1="16" y1="5.32" x2="16" y2="26.68"
            gradientUnits="userSpaceOnUse">
            <stop stop-color="#FDF3FE" />
            <stop offset="1" stop-color="#EDEBFC" />
        </linearGradient>
        <linearGradient id="paint1_linear_200_66632" x1="16" y1="5.32" x2="16" y2="26.68"
            gradientUnits="userSpaceOnUse">
            <stop stop-color="#FDF3FE" />
            <stop offset="1" stop-color="#EDEBFC" />
        </linearGradient>
        <linearGradient id="paint2_linear_200_66632" x1="16" y1="10.43" x2="16" y2="16.76"
            gradientUnits="userSpaceOnUse">
            <stop stop-color="#FDF3FE" />
            <stop offset="1" stop-color="#EDEBFC" />
        </linearGradient>
        <linearGradient id="paint3_linear_200_66632" x1="16" y1="10.43" x2="16" y2="16.76"
            gradientUnits="userSpaceOnUse">
            <stop stop-color="#FDF3FE" />
            <stop offset="1" stop-color="#EDEBFC" />
        </linearGradient>
        <linearGradient id="paint4_linear_200_66632" x1="16" y1="18.3" x2="16" y2="25.34"
            gradientUnits="userSpaceOnUse">
            <stop stop-color="#A999F1" />
            <stop offset="1" stop-color="#A67EF8" />
        </linearGradient>
        <linearGradient id="paint5_linear_200_66632" x1="16" y1="18.3" x2="16" y2="25.34"
            gradientUnits="userSpaceOnUse">
            <stop stop-color="#A999F1" />
            <stop offset="1" stop-color="#A67EF8" />
        </linearGradient>
        <linearGradient id="paint6_linear_200_66632" x1="16" y1="10" x2="16" y2="16.3" gradientUnits="userSpaceOnUse">
            <stop stop-color="#A999F1" />
            <stop offset="1" stop-color="#A67EF8" />
        </linearGradient>
        <linearGradient id="paint7_linear_200_66632" x1="16" y1="10" x2="16" y2="16.3" gradientUnits="userSpaceOnUse">
            <stop stop-color="#A999F1" />
            <stop offset="1" stop-color="#A67EF8" />
        </linearGradient>
    </defs>

    <path
        d="M16 26.68C21.9 26.68 26.68 21.9 26.68 16C26.68 10.1 21.9 5.32 16 5.32C10.1 5.32 5.32 10.1 5.32 16C5.32 21.9 10.1 26.68 16 26.68Z"
        fill="url(#paint0_linear_200_66632)" stroke="url(#paint1_linear_200_66632)" stroke-linejoin="round" />
    <path
        d="M12.83 13.6C12.83 11.85 14.25 10.43 16 10.43C17.75 10.43 19.16 11.85 19.16 13.6C19.16 15.35 17.74 16.76 16 16.76C14.26 16.76 12.83 15.34 12.83 13.6Z"
        fill="url(#paint2_linear_200_66632)" stroke="url(#paint3_linear_200_66632)" stroke-linejoin="round" />
    <path
        d="M21.6 23.58C21.43 23.7 21.26 23.81 21.08 23.92C19.6 24.82 17.86 25.34 16 25.34C14.14 25.34 12.4 24.82 10.92 23.92C10.74 23.81 10.57 23.7 10.4 23.58C10.57 20.64 13.01 18.3 16 18.3C18.99 18.3 21.43 20.64 21.6 23.58Z"
        fill="url(#paint4_linear_200_66632)" stroke="url(#paint5_linear_200_66632)" stroke-linecap="round"
        stroke-linejoin="round" />
    <path
        d="M19.16 13.14C19.16 14.88 17.74 16.3 16 16.3C14.26 16.3 12.83 14.88 12.83 13.14C12.83 11.4 14.25 9.97 16 9.97C17.75 9.97 19.16 11.39 19.16 13.14Z"
        fill="url(#paint6_linear_200_66632)" stroke="url(#paint7_linear_200_66632)" stroke-linecap="round"
        stroke-linejoin="round" />
</svg>