<svg width="32" height="32" viewBox="0 0 32 32" fill="none" xmlns="http://www.w3.org/2000/svg">
    <path
        d="M26.1203 18.9499L26.9503 18.1199C28.1203 16.9499 28.1203 15.0498 26.9503 13.8798L26.1203 13.0499C25.5603 12.4899 25.2403 11.7299 25.2403 10.9299V9.75985C25.2403 8.10985 23.9003 6.75985 22.2403 6.75985H21.0703C20.2803 6.75985 19.5103 6.43985 18.9503 5.87985L18.1203 5.04986C16.9503 3.87986 15.0503 3.87986 13.8803 5.04986L13.0504 5.87985C12.4904 6.43985 11.7303 6.75985 10.9303 6.75985H9.76034C8.11034 6.75985 6.76034 8.09985 6.76034 9.75985V10.9299C6.76034 11.7199 6.44034 12.4899 5.88034 13.0499L5.05035 13.8798C3.88035 15.0498 3.88035 16.9499 5.05035 18.1199L5.88034 18.9499C6.44034 19.5099 6.76034 20.2699 6.76034 21.0699V22.2399C6.76034 23.8899 8.10034 25.2399 9.76034 25.2399H10.9303C11.7203 25.2399 12.4904 25.5599 13.0504 26.1199L13.8803 26.9499C15.0503 28.1199 16.9503 28.1199 18.1203 26.9499L18.9503 26.1199C19.5103 25.5599 20.2703 25.2399 21.0703 25.2399H22.2403C23.8903 25.2399 25.2403 23.8999 25.2403 22.2399V21.0699C25.2403 20.2799 25.5603 19.5099 26.1203 18.9499Z"
        fill="url(#paint0_linear_200_66366)" stroke="url(#paint1_linear_200_66366)" stroke-linejoin="round" />
    <path d="M11.3203 15.4703L14.8003 18.9503L20.6903 13.0503" stroke="url(#paint2_linear_200_66366)" stroke-width="2"
        stroke-linecap="round" stroke-linejoin="round" />
    <defs>
        <linearGradient id="paint0_linear_200_66366" x1="16.0114" y1="4.17236" x2="16.0114" y2="27.8274"
            gradientUnits="userSpaceOnUse">
            <stop stop-color="#A999F1" />
            <stop offset="1" stop-color="#A67EF8" />
        </linearGradient>
        <linearGradient id="paint1_linear_200_66366" x1="16.0114" y1="3.06596" x2="16.0114" y2="28.9338"
            gradientUnits="userSpaceOnUse">
            <stop stop-color="#A999F1" />
            <stop offset="1" stop-color="#A67EF8" />
        </linearGradient>
        <linearGradient id="paint2_linear_200_66366" x1="16.0097" y1="12.7743" x2="16.0097" y2="19.2262"
            gradientUnits="userSpaceOnUse">
            <stop stop-color="#FDF3FE" />
            <stop offset="1" stop-color="#EDEBFC" />
        </linearGradient>
    </defs>
</svg>