<svg width="32" height="31" viewBox="0 0 32 31" fill="none" xmlns="http://www.w3.org/2000/svg">
<path d="M5.68488 10.1427C4.75488 10.1427 4.00488 9.40645 4.00488 8.5152C4.00488 7.62395 4.75488 6.8877 5.68488 6.8877H21.3749" stroke="url(#paint0_linear_200_66460)" stroke-width="1.5" stroke-linecap="round" stroke-linejoin="round"/>
<path d="M25.3749 11.1114V23.1433C25.3749 23.6761 24.9249 24.112 24.3749 24.112H5.00488C4.45488 24.112 4.00488 23.6761 4.00488 23.1433V8.51514C4.00488 9.40639 4.75488 10.1426 5.68488 10.1426H24.3749C24.9249 10.1426 25.3749 10.5786 25.3749 11.1114Z" fill="url(#paint1_linear_200_66460)" stroke="url(#paint2_linear_200_66460)" stroke-width="1.5" stroke-linecap="round" stroke-linejoin="round"/>
<path d="M20.7548 14.6279H27.9948V19.6364H20.7548C19.3248 19.6364 18.1748 18.5126 18.1748 17.137C18.1748 15.7517 19.3348 14.6376 20.7548 14.6376V14.6279Z" fill="url(#paint3_linear_200_66460)" stroke="url(#paint4_linear_200_66460)" stroke-linejoin="round"/>
<path d="M8.31508 20.8184C8.79004 20.8184 9.17508 20.4453 9.17508 19.9852C9.17508 19.5251 8.79004 19.1521 8.31508 19.1521C7.84011 19.1521 7.45508 19.5251 7.45508 19.9852C7.45508 20.4453 7.84011 20.8184 8.31508 20.8184Z" fill="url(#paint5_linear_200_66460)" stroke="url(#paint6_linear_200_66460)" stroke-linejoin="round"/>
<defs>
<linearGradient id="paint0_linear_200_66460" x1="12.6849" y1="6.16113" x2="12.6849" y2="10.8693" gradientUnits="userSpaceOnUse">
<stop stop-color="#FDF3FE"/>
<stop offset="1" stop-color="#EDEBFC"/>
</linearGradient>
<linearGradient id="paint1_linear_200_66460" x1="14.6849" y1="8.51514" x2="14.6849" y2="24.112" gradientUnits="userSpaceOnUse">
<stop stop-color="#FDF3FE"/>
<stop offset="1" stop-color="#EDEBFC"/>
</linearGradient>
<linearGradient id="paint2_linear_200_66460" x1="14.6849" y1="7.78857" x2="14.6849" y2="24.8386" gradientUnits="userSpaceOnUse">
<stop stop-color="#FDF3FE"/>
<stop offset="1" stop-color="#EDEBFC"/>
</linearGradient>
<linearGradient id="paint3_linear_200_66460" x1="23.0848" y1="14.6279" x2="23.0848" y2="19.6364" gradientUnits="userSpaceOnUse">
<stop stop-color="#A999F1"/>
<stop offset="1" stop-color="#A67EF8"/>
</linearGradient>
<linearGradient id="paint4_linear_200_66460" x1="23.0848" y1="14.1436" x2="23.0848" y2="20.1207" gradientUnits="userSpaceOnUse">
<stop stop-color="#A999F1"/>
<stop offset="1" stop-color="#A67EF8"/>
</linearGradient>
<linearGradient id="paint5_linear_200_66460" x1="8.31508" y1="19.1618" x2="8.31508" y2="20.8184" gradientUnits="userSpaceOnUse">
<stop stop-color="#A999F1"/>
<stop offset="1" stop-color="#A67EF8"/>
</linearGradient>
<linearGradient id="paint6_linear_200_66460" x1="8.31508" y1="18.6774" x2="8.31508" y2="21.3027" gradientUnits="userSpaceOnUse">
<stop stop-color="#A999F1"/>
<stop offset="1" stop-color="#A67EF8"/>
</linearGradient>
</defs>
</svg>
