<svg width="26" height="26" viewBox="0 0 32 32" fill="none" xmlns="http://www.w3.org/2000/svg">
    <path
        d="M16.0106 25.875C21.4617 25.875 25.8806 21.4561 25.8806 16.005C25.8806 10.554 21.4617 6.13501 16.0106 6.13501C10.5596 6.13501 6.14062 10.554 6.14062 16.005C6.14062 21.4561 10.5596 25.875 16.0106 25.875Z"
        fill="url(#paint0_linear_200_66522)" stroke="url(#paint1_linear_200_66522)" stroke-linejoin="round" />
    <path
        d="M26.6803 16.005C26.6803 10.115 21.8903 5.32495 16.0003 5.32495C10.1103 5.32495 5.32031 10.115 5.32031 16.005C5.32031 21.895 10.0903 26.6649 15.9603 26.6749C15.9703 26.6749 15.9803 26.6749 16.0003 26.6749C16.0103 26.6749 16.0203 26.6749 16.0403 26.6749C21.9103 26.6549 26.6803 21.875 26.6803 16.005ZM17.6703 25.0549C18.2903 23.5749 18.6003 21.3949 18.7403 19.8449C18.7703 19.5149 18.5303 19.215 18.1903 19.185C17.8603 19.165 17.5603 19.3949 17.5303 19.7349C17.1603 23.7549 16.3303 25.3449 16.0303 25.465C16.0303 25.465 16.0203 25.465 16.0103 25.465C15.6803 25.3449 14.8503 23.7649 14.4803 19.7349C14.4503 19.4049 14.1603 19.175 13.8203 19.185C13.4903 19.215 13.2403 19.5049 13.2703 19.8449C13.4103 21.3949 13.7203 23.5749 14.3403 25.0549C12.0103 23.8749 10.3003 20.265 10.3003 16.005C10.3003 11.745 12.0103 8.12495 14.3403 6.94495C13.7103 8.42495 13.4103 10.6149 13.2703 12.1649C13.2403 12.4949 13.4803 12.795 13.8203 12.825C14.1603 12.845 14.4503 12.6149 14.4803 12.2749C14.8503 8.22495 15.6903 6.63495 15.9903 6.53495C16.3203 6.63495 17.1603 8.21495 17.5303 12.2749C17.5603 12.5849 17.8203 12.825 18.1303 12.825C18.1503 12.825 18.1703 12.825 18.1903 12.825C18.5203 12.795 18.7703 12.5049 18.7403 12.1649C18.6003 10.6149 18.2903 8.42495 17.6703 6.94495C20.0003 8.12495 21.7103 11.7349 21.7103 15.9949C21.7103 20.2549 20.0103 23.865 17.6803 25.045L17.6703 25.0549ZM6.54031 16.005C6.54031 15.065 6.68031 14.155 6.94031 13.295H9.34031C9.19031 14.165 9.11031 15.065 9.11031 16.005C9.11031 16.945 9.20031 17.845 9.34031 18.715H6.94031C6.68031 17.855 6.54031 16.945 6.54031 16.005ZM22.6803 13.295H25.0803C25.3403 14.155 25.4803 15.065 25.4803 16.005C25.4803 16.945 25.3403 17.855 25.0803 18.715H22.6803C22.8303 17.845 22.9103 16.945 22.9103 16.005C22.9103 15.065 22.8203 14.165 22.6803 13.295ZM24.6203 12.085H22.4303C21.9603 10.265 21.1803 8.69495 20.1903 7.52495C22.1403 8.48495 23.7103 10.105 24.6203 12.085ZM11.8403 7.52495C10.8503 8.69495 10.0703 10.265 9.60031 12.085H7.41031C8.32031 10.105 9.89031 8.48495 11.8403 7.52495ZM7.41031 19.9249H9.60031C10.0703 21.7449 10.8503 23.3149 11.8403 24.4849C9.89031 23.5249 8.32031 21.9049 7.41031 19.9249ZM20.1903 24.4849C21.1803 23.3149 21.9603 21.7449 22.4303 19.9249H24.6203C23.7103 21.9049 22.1403 23.5249 20.1903 24.4849Z"
        fill="url(#paint2_linear_200_66522)" />
    <path
        d="M13.68 15.8449C13.83 15.7949 13.97 15.745 14.08 15.645C14.22 15.525 14.33 15.385 14.41 15.225C14.49 15.065 14.53 14.8749 14.53 14.6749C14.53 14.3849 14.46 14.145 14.33 13.945C14.2 13.745 14 13.5849 13.75 13.4849C13.5 13.3849 13.2 13.325 12.84 13.325C12.57 13.325 12.32 13.365 12.06 13.435C11.81 13.505 11.58 13.6049 11.37 13.7449C11.28 13.8049 11.22 13.8749 11.19 13.9549C11.16 14.0349 11.16 14.115 11.18 14.185C11.2 14.265 11.24 14.325 11.29 14.375C11.34 14.425 11.41 14.455 11.49 14.465C11.57 14.465 11.65 14.455 11.74 14.395C11.93 14.285 12.1 14.2049 12.26 14.1649C12.42 14.1249 12.59 14.1049 12.76 14.1049C13.04 14.1049 13.25 14.1649 13.4 14.2749C13.55 14.3849 13.62 14.565 13.62 14.785C13.62 14.945 13.58 15.085 13.51 15.195C13.44 15.305 13.34 15.3949 13.21 15.4549C13.08 15.5149 12.92 15.545 12.74 15.545H12.36C12.22 15.545 12.12 15.575 12.05 15.645C11.98 15.715 11.94 15.8049 11.94 15.9249C11.94 16.0449 11.97 16.1349 12.05 16.2049C12.12 16.2749 12.22 16.3049 12.36 16.3049H12.82C13.13 16.3049 13.37 16.3649 13.53 16.4849C13.69 16.6049 13.77 16.7849 13.77 17.0249C13.77 17.1849 13.73 17.325 13.66 17.445C13.59 17.565 13.47 17.6449 13.33 17.7049C13.18 17.7649 13.01 17.795 12.79 17.795C12.6 17.795 12.41 17.775 12.22 17.725C12.04 17.675 11.85 17.6049 11.65 17.4949C11.55 17.4449 11.46 17.425 11.37 17.435C11.28 17.435 11.22 17.4749 11.16 17.5249C11.1 17.5749 11.07 17.645 11.05 17.715C11.03 17.795 11.05 17.8649 11.08 17.9549C11.11 18.0449 11.18 18.1049 11.28 18.1749C11.49 18.3149 11.73 18.415 12.01 18.475C12.29 18.545 12.56 18.575 12.82 18.575C13.2 18.575 13.53 18.515 13.81 18.395C14.09 18.275 14.3 18.1049 14.45 17.8849C14.6 17.6649 14.67 17.405 14.67 17.1049C14.67 16.765 14.57 16.4749 14.38 16.2449C14.21 16.0449 13.97 15.9149 13.67 15.8449H13.68Z"
        fill="url(#paint3_linear_200_66522)" />
    <path
        d="M16.0197 17.4648C15.8597 17.4648 15.7197 17.5148 15.6197 17.6148C15.5197 17.7148 15.4697 17.8448 15.4697 17.9948C15.4697 18.1448 15.5197 18.2848 15.6197 18.3848C15.7197 18.4848 15.8497 18.5348 16.0197 18.5348C16.1897 18.5348 16.3197 18.4848 16.4197 18.3848C16.5097 18.2848 16.5597 18.1548 16.5597 17.9948C16.5597 17.8348 16.5097 17.7148 16.4197 17.6148C16.3297 17.5148 16.1897 17.4648 16.0197 17.4648Z"
        fill="url(#paint4_linear_200_66522)" />
    <path
        d="M20.4697 13.9849C20.1497 13.5349 19.6897 13.3149 19.0797 13.3149C18.6797 13.3149 18.3397 13.4149 18.0597 13.6149C17.7797 13.8149 17.5697 14.1049 17.4297 14.4949C17.2897 14.8849 17.2197 15.3649 17.2197 15.9349C17.2197 16.7849 17.3797 17.4349 17.6997 17.8949C18.0197 18.3549 18.4797 18.5749 19.0897 18.5749C19.4997 18.5749 19.8397 18.4749 20.1097 18.2649C20.3797 18.0549 20.5897 17.7549 20.7397 17.3649C20.8797 16.9749 20.9497 16.4949 20.9497 15.9249C20.9497 15.0749 20.7897 14.4249 20.4797 13.9849H20.4697ZM19.8097 17.3549C19.6497 17.6549 19.4097 17.8149 19.0797 17.8149C18.7497 17.8149 18.5097 17.6649 18.3597 17.3549C18.1997 17.0549 18.1197 16.5749 18.1197 15.9249C18.1197 15.2749 18.1997 14.8049 18.3597 14.5149C18.5197 14.2249 18.7597 14.0749 19.0797 14.0749C19.3997 14.0749 19.6497 14.2249 19.8097 14.5149C19.9697 14.8049 20.0497 15.2749 20.0497 15.9249C20.0497 16.5749 19.9697 17.0449 19.8097 17.3549Z"
        fill="url(#paint5_linear_200_66522)" />
    <defs>
        <linearGradient id="paint0_linear_200_66522" x1="16.0106" y1="6.13501" x2="16.0106" y2="25.875"
            gradientUnits="userSpaceOnUse">
            <stop stop-color="#FDF3FE" />
            <stop offset="1" stop-color="#EDEBFC" />
        </linearGradient>
        <linearGradient id="paint1_linear_200_66522" x1="16.0106" y1="5.63501" x2="16.0106" y2="26.375"
            gradientUnits="userSpaceOnUse">
            <stop stop-color="#FDF3FE" />
            <stop offset="1" stop-color="#EDEBFC" />
        </linearGradient>
        <linearGradient id="paint2_linear_200_66522" x1="16.0103" y1="5.32495" x2="16.0103" y2="26.685"
            gradientUnits="userSpaceOnUse">
            <stop stop-color="#A999F1" />
            <stop offset="1" stop-color="#A67EF8" />
        </linearGradient>
        <linearGradient id="paint3_linear_200_66522" x1="12.87" y1="13.315" x2="12.87" y2="18.575"
            gradientUnits="userSpaceOnUse">
            <stop stop-color="#A999F1" />
            <stop offset="1" stop-color="#A67EF8" />
        </linearGradient>
        <linearGradient id="paint4_linear_200_66522" x1="16.0097" y1="17.4648" x2="16.0097" y2="18.5448"
            gradientUnits="userSpaceOnUse">
            <stop stop-color="#A999F1" />
            <stop offset="1" stop-color="#A67EF8" />
        </linearGradient>
        <linearGradient id="paint5_linear_200_66522" x1="19.0797" y1="13.3149" x2="19.0797" y2="18.5749"
            gradientUnits="userSpaceOnUse">
            <stop stop-color="#A999F1" />
            <stop offset="1" stop-color="#A67EF8" />
        </linearGradient>
    </defs>
</svg>