<svg width="32" height="32" viewBox="0 0 32 32" fill="none" xmlns="http://www.w3.org/2000/svg">
<path d="M23.4298 3.99512H8.56984C6.09561 3.99512 4.08984 6.00088 4.08984 8.47512V23.5251C4.08984 25.9994 6.09561 28.0051 8.56984 28.0051H23.4298C25.9041 28.0051 27.9098 25.9994 27.9098 23.5251V8.47512C27.9098 6.00088 25.9041 3.99512 23.4298 3.99512Z" fill="url(#paint0_linear_200_67099)" stroke="url(#paint1_linear_200_67099)" stroke-linejoin="round"/>
<path d="M8.32031 23.7052L9.42031 19.5852C8.79031 18.4552 8.47031 17.1952 8.47031 15.9052C8.47031 11.7052 11.8803 8.29517 16.0803 8.29517C20.2803 8.29517 23.6903 11.7052 23.6903 15.9052C23.6903 20.1052 20.2803 23.5152 16.0803 23.5152C14.8203 23.5152 13.5803 23.1952 12.4603 22.5952L8.32031 23.7052ZM12.6703 21.0552L12.9303 21.2152C13.8903 21.7852 14.9803 22.0852 16.0803 22.0852C19.4803 22.0852 22.2503 19.3152 22.2503 15.9152C22.2503 12.5152 19.4803 9.74517 16.0803 9.74517C12.6803 9.74517 9.91031 12.5152 9.91031 15.9152C9.91031 17.0352 10.2203 18.1452 10.8103 19.1152L10.9703 19.3752L10.3503 21.6752L12.6603 21.0552H12.6703Z" fill="url(#paint2_linear_200_67099)" stroke="url(#paint3_linear_200_67099)" stroke-width="0.5" stroke-linecap="round" stroke-linejoin="round"/>
<path fill-rule="evenodd" clip-rule="evenodd" d="M18.9005 16.9651C18.5905 16.7751 18.1805 16.5651 17.8105 16.7151C17.5305 16.8351 17.3505 17.2751 17.1605 17.5051C17.0705 17.6251 16.9505 17.6351 16.8105 17.5851C15.7505 17.1651 14.9305 16.4551 14.3505 15.4751C14.2505 15.3251 14.2705 15.2051 14.3905 15.0651C14.5705 14.8551 14.7905 14.6151 14.8405 14.3351C14.8905 14.0551 14.7605 13.7251 14.6405 13.4751C14.4905 13.1551 14.3305 12.6951 14.0105 12.5151C13.7205 12.3451 13.3305 12.4451 13.0705 12.6551C12.6205 13.0251 12.4005 13.6051 12.4105 14.1751C12.4105 14.3351 12.4305 14.5051 12.4705 14.6551C12.5605 15.0351 12.7405 15.3851 12.9305 15.7251C13.0805 15.9751 13.2405 16.2251 13.4105 16.4551C13.9805 17.2251 14.6905 17.8951 15.5005 18.3951C15.9105 18.6451 16.3505 18.8651 16.8105 19.0151C17.3205 19.1851 17.7805 19.3651 18.3305 19.2551C18.9105 19.1451 19.4805 18.7851 19.7105 18.2251C19.7805 18.0551 19.8105 17.8751 19.7705 17.7051C19.6905 17.3451 19.2005 17.1351 18.9105 16.9551L18.9005 16.9651Z" fill="url(#paint4_linear_200_67099)" stroke="url(#paint5_linear_200_67099)" stroke-width="0.5" stroke-linecap="round" stroke-linejoin="round"/>
<defs>
<linearGradient id="paint0_linear_200_67099" x1="15.9998" y1="-51.5049" x2="15.9998" y2="-51.5049" gradientUnits="userSpaceOnUse">
<stop stop-color="#FDF3FE"/>
<stop offset="1" stop-color="#EDEBFC"/>
</linearGradient>
<linearGradient id="paint1_linear_200_67099" x1="15.9998" y1="3.49512" x2="15.9998" y2="28.5051" gradientUnits="userSpaceOnUse">
<stop stop-color="#FDF3FE"/>
<stop offset="1" stop-color="#EDEBFC"/>
</linearGradient>
<linearGradient id="paint2_linear_200_67099" x1="16.0003" y1="-51.5048" x2="16.0003" y2="-51.5048" gradientUnits="userSpaceOnUse">
<stop stop-color="#A999F1"/>
<stop offset="1" stop-color="#A67EF8"/>
</linearGradient>
<linearGradient id="paint3_linear_200_67099" x1="16.0003" y1="8.04517" x2="16.0003" y2="23.9552" gradientUnits="userSpaceOnUse">
<stop stop-color="#A999F1"/>
<stop offset="1" stop-color="#A67EF8"/>
</linearGradient>
<linearGradient id="paint4_linear_200_67099" x1="16.0905" y1="12.4351" x2="16.0905" y2="19.2951" gradientUnits="userSpaceOnUse">
<stop stop-color="#A999F1"/>
<stop offset="1" stop-color="#A67EF8"/>
</linearGradient>
<linearGradient id="paint5_linear_200_67099" x1="16.0905" y1="12.1851" x2="16.0905" y2="19.5451" gradientUnits="userSpaceOnUse">
<stop stop-color="#A999F1"/>
<stop offset="1" stop-color="#A67EF8"/>
</linearGradient>
</defs>
</svg>
