<svg width="32" height="31" viewBox="0 0 32 31" fill="none" xmlns="http://www.w3.org/2000/svg">
<path d="M28.263 15.1663H26.9386C26.6362 13.166 25.3953 11.3881 23.56 10.1455V6.2158C23.56 5.93294 23.3306 5.71069 23.0386 5.71069C21.3597 5.71069 19.9936 6.98356 19.8789 8.57969C19.0447 8.38775 18.1687 8.28673 17.2615 8.28673C12.0162 8.28673 7.73032 11.6305 7.53219 15.7926C6.22869 16.1866 4.62279 17.2069 4.26824 19.4091C4.22653 19.6819 4.42466 19.9446 4.70622 19.985C4.7375 19.985 4.75836 19.985 4.78964 19.985C5.03991 19.985 5.26932 19.8031 5.3006 19.5607C5.5613 17.8938 6.68753 17.1665 7.55305 16.8432C7.76161 18.5707 8.67928 20.1264 10.0558 21.3386L9.37794 23.9046C9.27366 24.2986 9.33624 24.7026 9.54479 25.0562C9.75335 25.4098 10.0975 25.6522 10.5042 25.7533L11.8077 26.0765C11.9328 26.1068 12.0684 26.127 12.1935 26.127C12.475 26.127 12.7462 26.0563 12.986 25.9149C13.3406 25.7027 13.6013 25.3795 13.7056 24.9855L14.1018 23.4904C15.0925 23.7631 16.1457 23.9147 17.2406 23.9147C18.3356 23.9147 19.3992 23.7631 20.3795 23.4904L20.7757 24.9855C20.88 25.3795 21.1303 25.7027 21.4952 25.9149C21.7351 26.0563 22.0166 26.127 22.2878 26.127C22.4129 26.127 22.5485 26.1068 22.6736 26.0765L23.9771 25.7533C24.3838 25.6522 24.7279 25.4098 24.9365 25.0562C25.145 24.7026 25.2076 24.2986 25.1033 23.9046L24.4255 21.3386C25.0929 20.7527 25.656 20.0759 26.0731 19.3485H28.2213C28.5133 19.3485 28.7427 19.1263 28.7427 18.8434V15.6613C28.7427 15.3784 28.5133 15.1562 28.2213 15.1562L28.263 15.1663Z" fill="url(#paint0_linear_200_66756)" stroke="url(#paint1_linear_200_66756)" stroke-linejoin="round"/>
<path d="M14.6885 10.5351C15.9285 9.91506 18.9485 9.87631 20.3685 10.5351" stroke="url(#paint2_linear_200_66756)" stroke-width="1.5" stroke-linecap="round" stroke-linejoin="round"/>
<path d="M23.2676 14.9041C23.6818 14.9041 24.0176 14.5788 24.0176 14.1775C24.0176 13.7762 23.6818 13.4509 23.2676 13.4509C22.8534 13.4509 22.5176 13.7762 22.5176 14.1775C22.5176 14.5788 22.8534 14.9041 23.2676 14.9041Z" fill="url(#paint3_linear_200_66756)" stroke="url(#paint4_linear_200_66756)" stroke-linejoin="round"/>
<defs>
<linearGradient id="paint0_linear_200_66756" x1="4.26824" y1="15.9138" x2="28.7844" y2="15.9138" gradientUnits="userSpaceOnUse">
<stop stop-color="#FDF3FE"/>
<stop offset="1" stop-color="#EDEBFC"/>
</linearGradient>
<linearGradient id="paint1_linear_200_66756" x1="3.74684" y1="15.9138" x2="29.3058" y2="15.9138" gradientUnits="userSpaceOnUse">
<stop stop-color="#FDF3FE"/>
<stop offset="1" stop-color="#EDEBFC"/>
</linearGradient>
<linearGradient id="paint2_linear_200_66756" x1="13.9385" y1="10.3026" x2="21.1085" y2="10.3026" gradientUnits="userSpaceOnUse">
<stop stop-color="#A999F1"/>
<stop offset="1" stop-color="#A67EF8"/>
</linearGradient>
<linearGradient id="paint3_linear_200_66756" x1="23.2676" y1="13.4509" x2="23.2676" y2="14.9041" gradientUnits="userSpaceOnUse">
<stop stop-color="#A999F1"/>
<stop offset="1" stop-color="#A67EF8"/>
</linearGradient>
<linearGradient id="paint4_linear_200_66756" x1="23.2676" y1="12.9666" x2="23.2676" y2="15.3884" gradientUnits="userSpaceOnUse">
<stop stop-color="#A999F1"/>
<stop offset="1" stop-color="#A67EF8"/>
</linearGradient>
</defs>
</svg>
